<svg width="28" height="28" viewBox="0 0 28 28" fill="none" xmlns="http://www.w3.org/2000/svg">
<path d="M8.52312 26H20.3751C21.0576 25.9997 21.7121 25.7284 22.1946 25.2457C22.6771 24.763 22.9481 24.1085 22.9481 23.426V12.01C25.3611 11.914 26.8081 9.235 25.5181 7.153L24.7641 5.937C24.4791 5.4766 24.0812 5.09663 23.6081 4.83307C23.1351 4.56952 22.6026 4.43112 22.0611 4.431H19.9091V3.48C19.9091 3.08765 19.7533 2.71136 19.476 2.43384C19.1987 2.15631 18.8225 2.00027 18.4301 2C17.9484 2.00013 17.4715 2.09514 17.0265 2.27959C16.5815 2.46405 16.1773 2.73434 15.8367 3.07504C15.4962 3.41574 15.2262 3.82017 15.0419 4.26524C14.8577 4.71031 14.763 5.18731 14.7631 5.669V10.854C12.8461 11.041 11.3991 11.949 10.3361 13.225C9.16212 14.635 8.47112 16.473 8.05912 18.238C7.64612 20.013 7.49912 21.776 7.45612 23.088C7.44015 23.5585 7.43582 24.0293 7.44312 24.5H6.45512C5.87903 24.4997 5.31556 24.3312 4.83394 24.0151C4.35233 23.699 3.97353 23.2491 3.7441 22.7206C3.51467 22.1922 3.4446 21.6083 3.54249 21.0406C3.64038 20.4728 3.90196 19.9461 4.29512 19.525L5.67512 18.045C6.6265 17.0248 7.14466 15.675 7.12041 14.2802C7.09616 12.8855 6.53139 11.5546 5.54512 10.568L4.19212 9.213C4.12345 9.13931 4.04065 9.08021 3.94865 9.03922C3.85665 8.99823 3.75734 8.97618 3.65664 8.97441C3.55594 8.97263 3.45591 8.99116 3.36252 9.02888C3.26913 9.0666 3.1843 9.12274 3.11308 9.19396C3.04186 9.26518 2.98571 9.35001 2.94799 9.4434C2.91027 9.53679 2.89175 9.63682 2.89352 9.73752C2.8953 9.83822 2.91734 9.93754 2.95834 10.0295C2.99933 10.1215 3.05843 10.2043 3.13212 10.273L4.48712 11.629C5.1987 12.3403 5.60615 13.3002 5.6235 14.3062C5.64085 15.3122 5.26675 16.2856 4.58012 17.021L3.20012 18.501C2.60844 19.1359 2.2149 19.9296 2.06775 20.7849C1.92059 21.6402 2.02622 22.5198 2.37168 23.316C2.71714 24.1121 3.28741 24.7901 4.01258 25.2669C4.73774 25.7436 5.58627 25.9984 6.45412 26H8.52312ZM18.4101 3.5V5.182C18.4101 5.597 18.7451 5.932 19.1601 5.932H22.0601C22.6431 5.932 23.1831 6.233 23.4901 6.728L24.2431 7.945C24.9381 9.065 24.1331 10.514 22.8141 10.514H22.1981C21.9992 10.514 21.8084 10.593 21.6678 10.7337C21.5271 10.8743 21.4481 11.0651 21.4481 11.264V23.426C21.4481 24.019 20.9681 24.5 20.3751 24.5H19.3011V23.426C19.3014 22.8485 19.1879 22.2766 18.9671 21.743C18.7463 21.2093 18.4225 20.7244 18.0143 20.3159C17.6061 19.9074 17.1214 19.5833 16.5879 19.3622C16.0544 19.141 15.4826 19.0271 14.9051 19.027H13.3851C13.1862 19.027 12.9954 19.106 12.8548 19.2467C12.7141 19.3873 12.6351 19.5781 12.6351 19.777C12.6351 19.9759 12.7141 20.1667 12.8548 20.3073C12.9954 20.448 13.1862 20.527 13.3851 20.527H14.9051C16.5051 20.527 17.8021 21.825 17.8021 23.426V24.5H8.94212C8.93465 24.0456 8.93865 23.5912 8.95412 23.137C8.99612 21.883 9.13512 20.225 9.51912 18.579C9.90512 16.924 10.5251 15.341 11.4881 14.186C12.4281 13.057 13.7051 12.318 15.5131 12.318C15.6116 12.318 15.7091 12.2986 15.8001 12.2609C15.8911 12.2232 15.9738 12.168 16.0434 12.0983C16.1131 12.0287 16.1683 11.946 16.206 11.855C16.2437 11.764 16.2631 11.6665 16.2631 11.568V5.668C16.2631 4.478 17.2221 3.511 18.4101 3.5Z" fill="#212529"/>
</svg>
