<svg width="32" height="32" viewBox="0 0 32 32" fill="none" xmlns="http://www.w3.org/2000/svg">
<path d="M20.8895 18.7505C20.8884 18.7498 20.8872 18.7492 20.886 18.7485L20.8895 18.7505Z" fill="#212529"/>
<path fill-rule="evenodd" clip-rule="evenodd" d="M12.9773 8.58393C13.4007 8.21059 13.7487 7.70659 13.8687 7.22526C13.9367 6.95193 13.9687 6.51926 13.6667 6.16993C13.358 5.81193 12.9013 5.77259 12.542 5.81793C12.2587 5.85393 12.0553 5.86126 11.874 5.86726L11.8453 5.86859C11.6387 5.87526 11.392 5.88393 11.1207 5.97193C10.8373 6.06393 10.5693 6.22526 10.2487 6.46193C10.0392 6.61562 9.84155 6.78476 9.65733 6.96793C8.57133 6.19459 7.17333 5.89259 4.97933 5.99993C4.71412 6.00258 4.46082 6.11048 4.27515 6.29989C4.08949 6.4893 3.98668 6.74471 3.98933 7.00993C3.99199 7.27514 4.09989 7.52844 4.2893 7.71411C4.47871 7.89977 4.73412 8.00258 4.99933 7.99993H5.958C6.01533 8.03926 6.07 8.07726 6.12133 8.11393L4.608 10.0073C4.3129 10.0317 4.02691 10.1213 3.77066 10.2697C3.51442 10.418 3.29431 10.6215 3.12624 10.8652C2.95817 11.109 2.84633 11.3871 2.79879 11.6793C2.75125 11.9716 2.76919 12.2708 2.85133 12.5553L3.04467 13.2219C3.16499 13.6382 3.41727 14.0042 3.76354 14.2647C4.1098 14.5253 4.53133 14.6663 4.96467 14.6666H7.046C7.19108 14.6665 7.33222 14.7138 7.448 14.8013L8.74333 15.7799C8.85667 15.8653 8.97533 15.9366 9.098 15.9953C9.86933 18.0819 10.6993 19.8593 11.6393 21.0433L11.8527 23.6099C11.632 23.7798 11.47 24.0145 11.3894 24.2811C11.3089 24.5477 11.3139 24.8328 11.4037 25.0965C11.4935 25.3601 11.6636 25.589 11.8901 25.751C12.1166 25.9131 12.3882 26.0001 12.6667 25.9999H14.6667C14.8435 25.9999 15.013 25.9297 15.1381 25.8047C15.2631 25.6796 15.3333 25.5101 15.3333 25.3333V19.9999H17.4133L17.44 20.0979C17.2884 20.178 17.1735 20.3134 17.1191 20.476C17.0647 20.6386 17.0751 20.8159 17.148 20.9711C17.221 21.1262 17.3509 21.2473 17.5108 21.3092C17.6707 21.371 17.8483 21.3689 18.0067 21.3033L18.0807 21.2726C18.3113 21.5413 18.5887 21.7793 18.9027 21.9793L18.9007 21.9846C18.8236 22.1397 18.8098 22.3186 18.8623 22.4837C18.9149 22.6487 19.0295 22.7868 19.1821 22.8687C19.3347 22.9507 19.5131 22.9701 19.6797 22.9228C19.8463 22.8754 19.9879 22.7652 20.0747 22.6153L20.13 22.5126C20.5702 22.6275 21.0246 22.6785 21.4793 22.6639L21.4967 22.7539C21.5303 22.9276 21.6315 23.0807 21.778 23.1797C21.9245 23.2788 22.1044 23.3155 22.278 23.2819C22.4516 23.2483 22.6048 23.1471 22.7038 23.0006C22.8028 22.8541 22.8396 22.6742 22.806 22.5006L22.7933 22.4373C23.1189 22.3318 23.4305 22.1875 23.7213 22.0073L23.8547 23.6093C23.6338 23.7789 23.4716 24.0135 23.3909 24.28C23.3102 24.5466 23.3149 24.8317 23.4045 25.0954C23.494 25.3591 23.6639 25.5882 23.8903 25.7504C24.1167 25.9126 24.3882 25.9999 24.6667 25.9999H26.6667C26.8435 25.9999 27.013 25.9297 27.1381 25.8047C27.2631 25.6796 27.3333 25.5101 27.3333 25.3333V13.9999C27.3333 12.2473 26.918 10.9733 26.2187 10.1019C26.782 10.2106 27.1527 10.3986 27.4 10.6366C27.7713 10.9933 28 11.5939 28 12.6659L28.258 16.2793C28.1007 16.5226 28 16.9039 28 17.3326C28 18.0693 28.2987 18.6659 28.6667 18.6659C29.0347 18.6659 29.3333 18.0693 29.3333 17.3326C29.3333 16.9039 29.232 16.5226 29.0753 16.2793L29.3333 12.6666C29.3333 11.4439 29.078 10.3999 28.324 9.67526C27.5793 8.95993 26.4867 8.69059 25.142 8.66793L23.132 8.66659H14.3333C13.8333 8.66659 13.3847 8.63593 12.9773 8.58393ZM25.0187 10.7559C24.5 10.2219 23.818 10.0099 23.1387 10.0006H14.3333C12.8067 10.0006 11.6867 9.74459 10.7507 9.42526C10.6127 9.37821 10.494 9.28724 10.4126 9.16629C10.3313 9.04533 10.2919 8.90105 10.3003 8.75554C10.3088 8.61003 10.3647 8.4713 10.4595 8.3606C10.5544 8.24989 10.6828 8.17332 10.8253 8.14259C11.2807 8.04459 11.712 7.87526 11.9753 7.68126C12.1634 7.54072 12.3245 7.36725 12.4507 7.16926C12.2333 7.18926 12.0613 7.19526 11.9227 7.19993H11.9207C11.6807 7.20859 11.6107 7.21459 11.532 7.23993C11.452 7.26659 11.3193 7.32926 11.0393 7.53526C10.698 7.78659 10.442 8.05393 10.2927 8.27459C10.2383 8.35437 10.1673 8.42139 10.0845 8.47102C10.0017 8.52065 9.90908 8.55171 9.8131 8.56204C9.71711 8.57237 9.62003 8.56174 9.52857 8.53087C9.4371 8.5 9.35343 8.44964 9.28333 8.38326C8.82267 7.94793 8.27533 7.62459 7.43 7.45259L7.50533 7.52059C7.63036 7.6347 7.70729 7.79209 7.72054 7.96083C7.73379 8.12958 7.68235 8.29704 7.57667 8.42926L5.454 11.0826C5.39158 11.1608 5.31237 11.2239 5.22224 11.2673C5.13211 11.3107 5.03337 11.3332 4.93333 11.3333H4.77333C4.66993 11.3332 4.56793 11.3572 4.47541 11.4034C4.38288 11.4496 4.30237 11.5166 4.24022 11.5993C4.17808 11.6819 4.13601 11.7779 4.11734 11.8796C4.09867 11.9813 4.10392 12.0859 4.13267 12.1853L4.32467 12.8519C4.36485 12.9908 4.44906 13.1128 4.56461 13.1996C4.68016 13.2864 4.8208 13.3333 4.96533 13.3333H7.04667C7.48169 13.3333 7.90485 13.4751 8.252 13.7373L9.54733 14.7159C9.626 14.7746 9.706 14.8119 9.78533 14.8319C9.89039 14.859 9.98725 14.9112 10.0675 14.9842C10.1478 15.0572 10.2091 15.1486 10.246 15.2506C11.078 17.5479 11.9193 19.3133 12.7967 20.3513C12.886 20.4573 12.94 20.5884 12.9513 20.7266L13.2207 23.9533C13.2347 24.12 13.1855 24.2859 13.0829 24.418C12.9802 24.5502 12.8317 24.6389 12.6667 24.6666H14V19.3333C14 19.1565 14.0702 18.9869 14.1953 18.8619C14.3203 18.7368 14.4899 18.6666 14.6667 18.6666H18.82L18.76 18.6066C18.0067 17.8486 17.1313 16.8913 16.7813 16.3733L17.8853 15.6266C18.1567 16.0273 18.948 16.9039 19.7053 17.6666C20.0138 17.9814 20.3341 18.2845 20.6653 18.5753C20.7873 18.6786 20.8587 18.7306 20.886 18.7486C20.8509 18.7315 20.814 18.7186 20.776 18.7099C20.8617 18.7423 20.9397 18.792 21.0053 18.8559C21.9253 19.7513 22.9133 20.4186 24.444 20.6759C24.59 20.7006 24.7236 20.7731 24.8238 20.8821C24.924 20.9911 24.985 21.1304 24.9973 21.2779L25.2207 23.9539C25.2345 24.1205 25.1852 24.2863 25.0826 24.4183C24.98 24.5503 24.8316 24.6389 24.6667 24.6666H26V13.9999C26 12.2799 25.5493 11.3026 25.0187 10.7559ZM21.3333 21.3333C20.038 21.3333 19.1753 20.6953 18.8327 19.9999H20.274C20.794 20.4839 21.36 20.9186 22.0273 21.2679C21.812 21.3099 21.5807 21.3333 21.3333 21.3333Z" fill="#212529"/>
</svg>
