<svg width="32" height="32" viewBox="0 0 32 32" fill="none" xmlns="http://www.w3.org/2000/svg">
<g clip-path="url(#clip0_1_4982)">
<path d="M11.4667 21.8666C10.3024 22.9398 8.76812 23.5211 7.18497 23.4889C5.60182 23.4567 4.09248 22.8134 2.9728 21.6938C1.85311 20.5741 1.20986 19.0647 1.17765 17.4816C1.14545 15.8984 1.72678 14.3642 2.8 13.1999L13.2 2.79989C14.3643 1.72667 15.8986 1.14533 17.4817 1.17754C19.0648 1.20975 20.5742 1.853 21.6939 2.97268C22.8136 4.09237 23.4568 5.60171 23.489 7.18486C23.5212 8.768 22.9399 10.3023 21.8667 11.4666M7.99867 7.99855L13.6653 13.6652" stroke="black" stroke-width="2" stroke-linecap="round" stroke-linejoin="round"/>
<path d="M23 20V26M20 23H26M31 21C31.0045 23.3287 30.214 25.5891 28.7593 27.4075C27.3046 29.2258 25.2728 30.4932 23 31C20.7272 30.4932 18.6954 29.2258 17.2407 27.4075C15.786 25.5891 14.9955 23.3287 15 21V18C15 17.4696 15.2107 16.9609 15.5858 16.5858C15.9609 16.2107 16.4696 16 17 16H29C29.5304 16 30.0391 16.2107 30.4142 16.5858C30.7893 16.9609 31 17.4696 31 18V21Z" stroke="black" stroke-width="2" stroke-linecap="round" stroke-linejoin="round"/>
</g>
<defs>
<clipPath id="clip0_1_4982">
<rect width="32" height="32" fill="white"/>
</clipPath>
</defs>
</svg>
