<svg width="24" height="24" viewBox="0 0 24 24" fill="none" xmlns="http://www.w3.org/2000/svg">
<rect width="24" height="24" fill="#F5F5F5"/>
<g id="Profile">
<g clip-path="url(#clip0_1_3)">
<rect x="-53" y="-241" width="360" height="800" rx="24" fill="#F8F9FA"/>
<g id="Group 32">
<rect id="Rectangle 22" x="-12.5" y="-12.5" width="279" height="49" rx="4.5" fill="#F8F9FA" stroke="#6C757D"/>
<g id="uil:heart-medical">
<rect x="-7" y="-7" width="38" height="38" rx="5" fill="#FAC213"/>
<g id="akar-icons:edit">
<g id="Group">
<path id="Vector" d="M16.474 4.40783L18.592 6.52483M17.836 2.54283L12.109 8.26983C11.8131 8.56533 11.6113 8.94181 11.529 9.35183L11 11.9998L13.648 11.4698C14.058 11.3878 14.434 11.1868 14.73 10.8908L20.457 5.16383C20.6291 4.99173 20.7656 4.78742 20.8588 4.56256C20.9519 4.33771 20.9998 4.09671 20.9998 3.85333C20.9998 3.60994 20.9519 3.36895 20.8588 3.14409C20.7656 2.91923 20.6291 2.71492 20.457 2.54283C20.2849 2.37073 20.0806 2.23421 19.8557 2.14108C19.6309 2.04794 19.3899 2 19.1465 2C18.9031 2 18.6621 2.04794 18.4373 2.14108C18.2124 2.23421 18.0081 2.37073 17.836 2.54283Z" stroke="black" stroke-width="2" stroke-linecap="round" stroke-linejoin="round"/>
<path id="Vector_2" d="M19 15V18C19 18.5304 18.7893 19.0391 18.4142 19.4142C18.0391 19.7893 17.5304 20 17 20H6C5.46957 20 4.96086 19.7893 4.58579 19.4142C4.21071 19.0391 4 18.5304 4 18V7C4 6.46957 4.21071 5.96086 4.58579 5.58579C4.96086 5.21071 5.46957 5 6 5H9" stroke="black" stroke-width="2" stroke-linecap="round" stroke-linejoin="round"/>
</g>
</g>
</g>
</g>
</g>
</g>
<defs>
<clipPath id="clip0_1_3">
<rect x="-53" y="-241" width="360" height="800" rx="24" fill="white"/>
</clipPath>
</defs>
</svg>
