<svg width="232" height="282" viewBox="0 0 232 282" fill="none" xmlns="http://www.w3.org/2000/svg">
<path d="M190.579 272.192C190.579 272.192 208.931 263.392 206.715 228.807C204.498 194.135 179.053 179.35 168.857 162.454C158.573 145.646 117.613 79.2927 80.8192 108.157C44.0257 137.11 45.5329 152.686 25.1414 181.902C-4.02742 223.791 2.97664 277.296 51.0298 280.904C51.0298 280.904 96.3345 260.928 128.872 266.648C161.41 272.368 178.255 277.648 190.579 272.192Z" fill="#FAC213"/>
<path d="M205.119 265.504C186.678 275.888 168.325 278.616 164.247 271.488C160.257 264.36 171.872 250.103 190.402 239.719C208.843 229.335 227.106 226.607 231.185 233.735C235.263 240.863 223.649 255.12 205.119 265.504Z" fill="#008780"/>
<path d="M193.682 233.031C185.082 250.719 172.581 262.336 165.754 259.08C158.839 255.736 160.169 238.839 168.68 221.151C177.191 203.551 189.692 191.935 196.608 195.191C203.523 198.447 202.193 215.431 193.682 233.031Z" fill="#009F97"/>
<path d="M34.4505 278.704C55.108 283.28 73.4604 280.552 75.2336 272.544C77.0068 264.536 61.6688 254.328 40.9226 249.751C20.1764 245.175 1.91266 247.903 0.139485 255.912C-1.63369 263.92 13.7043 274.128 34.4505 278.704Z" fill="#008780"/>
<path d="M35.869 244.383C49.1678 258.728 64.5945 266.296 70.18 261.104C75.8542 256 69.5594 240.159 56.2605 225.727C42.873 211.295 27.5351 203.815 21.8609 209.007C16.2754 214.111 22.4815 229.951 35.869 244.383Z" fill="#009F97"/>
<path d="M182.954 247.551L190.579 272.192C190.579 272.192 186.589 281.256 164.69 273.776L160.612 259.784L182.954 247.551Z" fill="#F9CEBA"/>
<path d="M182.954 247.551C182.954 247.551 179.496 255.472 161.676 263.48L160.612 259.784L182.954 247.551Z" fill="#EF8755"/>
<path d="M65.9244 128.838C65.9244 128.838 23.9888 98.8291 13.261 99.4451C2.44464 100.061 -2.4316 108.157 1.55805 117.837C2.79927 120.917 34.0959 174.07 40.9226 177.766L59.0977 145.998L65.9244 128.838Z" fill="#F9CEBA"/>
<path d="M40.9226 177.766L62.1121 141.51L60.9595 141.246L61.2255 140.542L13.261 108.157L51.0297 139.222L40.9226 177.766Z" fill="#EF8755"/>
<path d="M125.68 155.59C125.68 155.59 123.819 172.134 134.014 178.47C134.014 178.47 122.666 203.375 110.874 203.375C99.0828 203.375 88.2664 183.398 88.2664 183.398C88.2664 183.398 96.7777 168.702 95.9797 158.23L125.68 155.59Z" fill="#F6B98F"/>
<path d="M125.592 157.878C125.592 156.47 125.681 155.59 125.681 155.59L95.9798 158.23C96.2457 161.662 95.4478 165.622 94.3839 169.318C122.489 170.638 125.592 157.878 125.592 157.878Z" fill="#EF8755"/>
<path d="M127.099 169.054C127.099 169.054 141.728 175.39 154.229 180.67C166.73 186.038 174.975 192.287 176.571 196.599C178.255 200.911 188.096 243.855 188.096 243.855C188.096 243.855 167.971 258.728 160.612 259.784L164.69 273.776C164.69 273.776 149.884 265.68 115.485 273.776C81.1737 281.96 58.5657 283.368 51.0296 280.904L62.112 208.831L37.6422 188.062L52.6255 140.542C52.6255 140.542 84.0108 167.03 87.0252 168.438C90.0396 169.934 94.5612 168.702 94.5612 168.702C94.5612 168.702 96.7777 188.855 111.14 188.855C125.503 188.855 127.099 169.054 127.099 169.054Z" fill="#792D79"/>
<path d="M87.0251 168.438C84.8973 167.47 68.4068 153.83 59.0976 145.998C59.0976 145.998 54.31 178.47 66.6336 186.742V183.134C66.6336 183.134 70.8005 189.206 76.0314 189.91C76.0314 189.91 91.724 191.495 89.8622 176.358C89.8622 176.358 83.9221 172.75 85.7839 172.222C87.5571 171.782 90.8375 175.654 95.4477 173.366C94.7385 170.726 94.5611 168.702 94.5611 168.702C94.5611 168.702 90.0395 169.934 87.0251 168.438Z" fill="#4B2755"/>
<path d="M150.416 232.591C150.416 232.591 142.526 222.823 141.639 214.903C140.664 207.071 147.313 177.766 147.313 177.766C147.313 177.766 136.852 197.743 139.157 216.399C141.373 234.263 149.796 238.399 155.293 238.575L150.416 211.295V232.591Z" fill="#4B2755"/>
<path d="M62.1121 198.975V208.831L69.914 198.183L63.4419 204.167L62.1121 198.975Z" fill="#4B2755"/>
<path d="M155.293 238.575C155.293 238.575 139.245 226.519 140.309 211.295C141.284 195.983 147.402 177.766 147.402 177.766H147.313C145.274 176.886 143.235 176.006 141.284 175.214L130.823 217.807C130.823 217.807 103.072 221.239 87.0252 207.599L80.8191 163.862L80.7304 163.774C79.1345 162.542 77.3614 161.134 75.4995 159.55C75.4995 159.55 78.6026 199.855 75.4995 205.927C72.3965 212.087 59.5409 225.727 59.5409 225.727L51.0297 280.904C58.5657 283.368 81.1737 281.96 115.485 273.776C149.884 265.68 164.69 273.776 164.69 273.776L160.612 259.784L155.293 238.575Z" fill="#EB624A"/>
<path d="M141.462 218.863C141.462 222.383 138.625 225.111 135.167 225.111C131.709 225.111 128.872 222.383 128.872 218.863C128.872 215.431 131.709 212.703 135.167 212.703C138.625 212.703 141.462 215.431 141.462 218.863Z" fill="#F9CEBA"/>
<path d="M87.1139 204.431C87.1139 207.863 84.2768 210.679 80.8191 210.679C77.3614 210.679 74.5243 207.863 74.5243 204.431C74.5243 200.999 77.3614 198.183 80.8191 198.183C84.2768 198.183 87.1139 200.999 87.1139 204.431Z" fill="#F9CEBA"/>
<path d="M114.244 210.679C113.889 209.359 112.559 208.567 111.229 208.919C102.363 211.119 95.1819 209.975 89.951 205.487C74.9676 192.463 78.8686 156.206 78.9573 155.854C79.046 154.534 78.0707 153.302 76.7408 153.126C75.4109 153.038 74.1697 154.006 73.9924 155.326C73.8151 156.91 69.7368 194.487 86.6706 209.183C91.1922 212.967 96.6004 214.903 102.895 214.903C105.91 214.903 109.101 214.463 112.47 213.671C113.8 213.319 114.598 211.999 114.244 210.679Z" fill="#F5A63E"/>
<path d="M145.806 135.878C146.427 134.382 146.87 132.886 147.136 131.39C147.845 127.342 147.047 123.733 145.097 121.709C144.565 121.093 144.033 120.653 143.324 120.389C140.043 119.069 135.876 121.181 132.862 125.406C131.975 126.638 131.177 128.046 130.468 129.63C127.631 136.406 128.784 143.358 132.95 145.118C133.039 145.118 133.128 145.118 133.216 145.206C137.383 146.702 142.969 142.654 145.806 135.878Z" fill="#F6B98F"/>
<path d="M68.2296 129.982C64.5945 132.798 65.3925 139.75 69.9141 145.558C74.081 150.926 79.9325 153.39 83.6562 151.718C84.0109 151.542 84.3655 151.366 84.7201 151.102C88.3551 148.286 87.5572 141.334 83.0356 135.526C81.883 133.942 80.5532 132.71 79.1346 131.654C75.2336 128.75 70.8893 127.869 68.2296 129.982Z" fill="#F6B98F"/>
<path d="M109.988 165.094C115.839 164.478 121.159 161.926 125.237 158.23C131.355 152.686 134.901 144.414 133.926 135.526L130.379 101.997L76.5635 107.717L80.1985 141.246C80.8191 147.318 83.4789 152.598 87.3799 156.734C92.9654 162.63 101.211 165.974 109.988 165.094Z" fill="#F9CEBA"/>
<path d="M113.889 126.374C113.889 126.374 121.07 121.533 126.656 125.67C132.153 129.718 127.808 122.061 122.489 121.093C117.169 120.213 115.307 122.238 115.307 122.238C115.307 122.238 114.598 121.533 113.8 121.533C111.584 121.445 110.786 128.134 113.889 126.374Z" fill="#ED785B"/>
<path d="M95.8024 127.958C95.8024 127.958 87.9118 124.614 83.2129 129.63C78.5139 134.646 81.351 126.286 86.4046 124.438C91.4581 122.501 93.6746 124.173 93.6746 124.173C93.6746 124.173 94.2066 123.293 95.0045 123.117C97.1323 122.677 99.2601 129.102 95.8024 127.958Z" fill="#ED785B"/>
<path d="M116.017 136.23C115.751 136.142 115.485 135.878 115.485 135.614C115.485 135.35 115.662 135.174 115.839 134.998C115.839 134.998 115.928 134.998 115.928 134.91C119.829 130.862 123.819 132.886 126.478 135.35C126.744 135.526 126.744 135.966 126.478 136.23C126.212 136.582 125.769 136.582 125.503 136.318C120.716 131.918 117.879 134.91 116.903 135.878C116.726 136.142 116.549 136.318 116.194 136.318C116.105 136.318 116.017 136.318 116.017 136.23Z" fill="#37303E"/>
<path d="M86.2272 137.55C85.9613 137.462 85.7839 137.198 85.7839 136.934C85.7839 136.67 85.8726 136.406 86.0499 136.318C86.1386 136.318 86.1386 136.23 86.1386 136.23C90.1282 132.094 94.0292 134.118 96.689 136.582C96.955 136.846 96.955 137.286 96.7776 137.55C96.5117 137.814 96.0684 137.814 95.8024 137.55C91.0148 133.15 88.0891 136.142 87.2025 137.11C86.9365 137.374 86.7592 137.55 86.4932 137.55C86.4045 137.55 86.3159 137.55 86.2272 137.55Z" fill="#37303E"/>
<path d="M119.652 156.822C117.524 155.59 117.879 151.366 120.272 147.494C122.755 143.534 126.39 141.422 128.518 142.654C130.557 143.974 130.291 148.198 127.808 152.07C125.415 156.03 121.691 158.142 119.652 156.822Z" fill="#ED785B"/>
<path d="M87.1139 146.262C85.3407 147.846 86.2273 151.982 89.2417 155.414C92.2561 158.934 96.2458 160.518 98.1076 158.934C99.9694 157.35 98.9942 153.214 95.9798 149.694C92.9654 146.262 88.9757 144.678 87.1139 146.262Z" fill="#ED785B"/>
<path d="M112.027 143.006H111.761L108.215 143.358L107.505 143.446L103.87 143.798H103.693C103.338 143.798 103.072 144.062 103.072 144.326L103.25 146.174C103.25 146.438 103.604 146.614 103.959 146.614H104.136C104.136 146.614 105.466 146.614 105.732 147.23C105.732 147.23 105.732 147.582 107.151 147.406C107.417 147.406 107.683 147.406 107.86 147.318C108.569 147.318 108.569 147.318 108.569 147.318C108.747 147.23 109.013 147.23 109.279 147.23C110.697 147.054 110.697 146.79 110.697 146.79C110.786 146.086 112.027 145.822 112.027 145.822H112.293C112.648 145.734 112.914 145.558 112.914 145.294L112.648 143.446C112.648 143.182 112.382 143.006 112.027 143.006Z" fill="#E73B50"/>
<path d="M113.978 153.39C113.712 153.214 113.446 153.214 113.268 153.478C111.938 155.15 110.431 156.03 108.835 156.118C106.176 156.294 103.959 154.182 103.959 154.182C103.782 154.006 103.516 154.006 103.338 154.182C103.161 154.358 103.161 154.622 103.338 154.798C103.427 154.886 105.555 157.086 108.481 157.086C108.658 157.086 108.747 157.086 108.835 157.086C110.697 156.998 112.47 155.942 113.978 154.006C114.155 153.83 114.155 153.478 113.978 153.39Z" fill="#E73B50"/>
<path d="M155.647 132.71C160.435 128.398 156.888 123.117 156.888 123.117C155.293 127.254 149.086 122.677 147.402 118.805C145.629 114.933 133.571 88.4449 128.872 81.3168C122.843 72.1647 103.338 70.4926 87.0252 76.0367C70.7119 81.4928 68.2295 104.989 65.9243 113.437C63.6192 121.797 57.1471 120.917 57.1471 120.917C59.0089 124.173 63.4419 125.229 63.4419 125.229C62.644 129.014 56.3492 156.822 55.4626 169.23C54.4873 181.55 61.4027 184.454 61.4027 184.454C59.0976 180.054 61.4027 178.206 61.4027 178.206C62.644 182.958 70.18 186.478 70.18 186.478L69.8253 184.982C75.8541 189.03 83.5675 187.798 83.5675 187.798L80.819 186.742C84.8087 186.83 87.0252 185.422 88.355 183.574C88.2664 183.486 88.2664 183.398 88.2664 183.398C88.2664 183.398 88.7983 182.518 89.5963 180.934C90.2169 178.558 89.8622 176.358 89.8622 176.358C89.8622 176.358 86.2272 181.55 82.2376 177.414C78.2479 173.278 81.4396 165.182 81.4396 165.182C84.8087 173.806 94.1179 169.406 94.3839 169.318C95.0045 167.118 95.5364 164.918 95.8024 162.718C92.6107 161.31 89.7736 159.286 87.3798 156.734C85.9613 155.238 84.72 153.566 83.6561 151.718C79.9324 153.39 74.081 150.926 69.914 145.558C65.3924 139.75 64.5945 132.798 68.2295 129.982C70.18 128.486 73.0171 128.486 75.9428 129.806C76.0315 129.982 78.1593 147.582 82.4149 149.254C82.4149 149.254 77.3613 134.206 81.5283 128.486L87.0252 120.917L86.2272 126.814C90.7488 124.877 99.8807 120.037 99.8807 120.037L99.0828 123.821C104.934 120.565 105.378 108.157 105.378 108.157C106.973 119.157 124.085 118.805 124.085 118.805V113.261C124.883 116.693 127.631 120.125 129.847 122.501C129.847 122.501 135.078 135.878 133.571 143.71C133.571 143.71 137.915 130.158 135.344 122.677C137.915 120.389 140.841 119.421 143.324 120.389C144.033 120.653 144.565 121.093 145.097 121.709C147.047 123.733 147.845 127.342 147.136 131.39C146.87 132.886 146.427 134.382 145.806 135.878C142.969 142.566 137.472 146.702 133.216 145.206C131.887 150.046 129.227 154.446 125.592 157.878C125.503 160.518 125.769 164.83 127.099 169.142C127.276 169.142 138.447 173.982 149.618 178.734C152.101 177.326 154.229 174.598 154.229 174.598L155.913 162.806L158.13 169.318C163.892 162.982 155.647 132.71 155.647 132.71Z" fill="#4E3229"/>
<path d="M75.0562 90.997C76.4748 92.053 84.3654 98.7411 85.7839 90.205C86.3159 86.6849 81.7943 84.9249 76.2974 84.0449C73.4603 87.8289 71.5099 92.405 70.0913 96.8931C70.0913 96.8051 73.6377 89.941 75.0562 90.997Z" fill="#007F71"/>
<path d="M123.109 92.229C123.109 92.229 122.4 97.7731 128.074 96.8931C133.748 95.925 135.344 94.429 139.245 101.205C136.586 95.749 133.748 90.0289 131.532 85.8929L126.567 87.6529L123.109 92.229Z" fill="#007F71"/>
<path d="M131.975 66.7086C129.759 63.1006 125.06 53.2444 125.06 53.2444C125.06 53.2444 124.173 49.1964 125.06 48.5803C126.035 47.9643 129.582 44.1803 130.202 42.0682H128.872C128.872 42.0682 131.177 34.6761 129.582 31.6841C129.582 31.6841 134.901 8.27572 133.483 4.31565C132.153 0.355593 123.021 6.16368 118.41 14.6118C118.41 14.6118 112.648 11.7078 104.846 13.9078C104.846 13.9078 98.9055 -1.84444 93.9406 0.17959C88.8871 2.29162 89.685 19.7159 90.1283 27.196C90.1283 27.196 87.9118 32.1241 86.4046 32.3001L88.2665 32.7401C88.2665 32.7401 87.9118 43.2123 89.8623 45.7643L87.9118 51.2204C87.9118 51.2204 82.2376 60.5485 79.5779 63.8926C77.0068 67.3246 62.2007 85.2769 62.378 89.941C62.4667 94.5171 66.1017 99.0051 70.0914 96.8931C70.0914 96.8931 72.9285 89.149 75.1449 89.765C77.2727 90.381 80.3758 95.2211 83.3016 93.901C83.3016 93.901 86.05 92.933 85.784 90.205C85.784 90.205 88.1778 89.589 87.9118 86.2449C87.9118 86.2449 88.9757 85.9809 89.3304 84.8369C89.7737 83.6049 88.9757 82.3729 87.8232 81.9329L80.8191 79.3808C82.6809 77.9728 84.7201 76.8288 87.0252 76.0368C103.338 70.4927 122.843 72.1647 128.872 81.3168C128.961 81.4929 129.05 81.5808 129.138 81.7569V81.9329L121.957 83.7809C120.716 84.0449 119.829 85.2769 120.095 86.5089C120.45 87.6529 121.425 88.005 121.425 88.005C120.804 91.349 123.109 92.229 123.109 92.229C122.577 94.9571 125.237 96.1011 125.237 96.1011C127.986 97.7731 131.532 93.197 133.748 92.845C135.965 92.493 139.245 101.205 139.245 101.205C142.969 103.669 145.806 98.8291 146.427 94.341C147.047 89.765 134.28 70.3167 131.975 66.7086Z" fill="#FBF8F4"/>
<path d="M93.9406 0.17959C88.887 2.29162 89.685 19.7159 90.1283 27.196L104.846 13.9078C104.846 13.9078 98.9055 -1.84444 93.9406 0.17959Z" fill="#F9CFA9"/>
<path d="M133.482 4.31561C132.153 0.355551 123.021 6.16364 118.41 14.6118L129.581 31.684C129.581 31.684 134.901 8.27567 133.482 4.31561Z" fill="#F9CFA9"/>
<path d="M128.872 81.3168C128.961 81.4929 129.05 81.5808 129.138 81.7569V81.9329L121.957 83.7809C120.716 84.0449 119.829 85.2769 120.095 86.5089C120.45 87.6529 121.425 88.005 121.425 88.005C120.804 91.349 123.109 92.229 123.109 92.229C122.577 94.9571 125.237 96.1011 125.237 96.1011C127.986 97.7731 131.621 93.373 133.748 92.845C135.256 92.493 139.245 101.205 139.245 101.205C142.969 103.669 145.806 98.8291 146.427 94.341C147.047 89.765 134.28 70.3167 131.975 66.7086C129.759 63.1006 125.06 53.2444 125.06 53.2444C125.06 53.2444 124.173 49.1964 125.06 48.5803C126.035 47.9643 129.582 44.1803 130.202 42.0682H128.872C128.872 42.0682 131.177 34.6761 129.582 31.6841C129.582 31.6841 127.542 20.0679 120.45 16.2838C120.45 16.2838 126.212 4.31565 132.596 3.25964C129.759 1.93962 122.4 7.2197 118.41 14.6118C118.41 14.6118 112.648 11.7078 104.846 13.9078C104.846 13.9078 98.9055 -1.84444 93.9406 0.17959C93.9406 0.17959 98.1963 0.971603 102.807 15.5798C102.807 15.5798 94.1179 17.6039 90.1283 27.196C90.1283 27.196 87.9118 32.1241 86.4046 32.3001L88.2665 32.7401C88.2665 32.7401 87.9118 43.2123 89.8623 45.7643L88.5324 49.4604C88.5324 49.4604 82.2376 60.5485 79.5779 63.8926C77.0068 67.3246 62.2007 85.2769 62.378 89.941C62.4667 94.5171 66.1017 99.0051 70.0914 96.8931C70.0914 96.8931 72.9285 89.149 75.1449 89.765C77.2727 90.381 80.3758 95.2211 83.3016 93.901C83.3016 93.901 86.05 92.933 85.784 90.205C85.784 90.205 88.1778 89.589 87.9118 86.2449C87.9118 86.2449 88.9757 85.9809 89.3304 84.8369C89.7737 83.6049 88.9757 82.3729 87.8232 81.9329L80.8191 79.3808C82.6809 77.9728 84.7201 76.8288 87.0252 76.0368C88.4438 75.5088 89.8623 75.0687 91.2809 74.7167C91.2809 74.7167 95.0045 50.8684 108.392 52.1884C118.41 53.1564 118.765 67.4126 118.322 74.4527C123.021 75.8608 126.744 78.1488 128.872 81.3168Z" fill="#F5A63E"/>
<path d="M104.491 52.5404C99.6148 52.2764 94.118 51.3964 88.5325 49.4603C88.5325 49.4603 92.8768 53.3324 99.3489 55.8844C100.767 54.3004 102.541 53.1564 104.491 52.5404Z" fill="#F08519"/>
<path d="M124.351 50.6043C124.351 50.6043 118.765 52.3644 110.431 52.6284C112.914 53.4204 114.687 55.1804 115.839 57.4684C118.854 56.7644 121.957 55.4444 125.06 53.2444L124.351 50.6043Z" fill="#F08519"/>
<path d="M68.4955 85.8049C68.4955 85.8049 73.3717 81.6688 75.6769 79.9088C77.982 78.1488 80.8191 79.3808 80.8191 79.3808C82.6809 77.9728 84.7201 76.7408 87.0252 76.0368C88.4437 75.5087 89.8623 75.0687 91.2808 74.7167C91.2808 74.7167 79.4892 76.2128 77.0067 77.6208C74.6129 78.9408 68.4955 85.8049 68.4955 85.8049Z" fill="#F08519"/>
<path d="M137.738 85.2768C137.738 85.2768 131.266 74.2767 118.322 74.4527C123.021 75.8607 126.744 78.1487 128.872 81.3168C128.961 81.4928 129.05 81.5808 129.138 81.7568V81.9328C129.138 81.9328 134.546 81.0528 137.738 85.2768Z" fill="#F08519"/>
<path d="M89.8624 45.7643C89.8624 45.7643 106.264 56.7644 124.439 48.8443C124.794 48.7563 125.149 48.9323 125.237 49.2843L125.769 52.7164C125.858 52.8924 125.681 53.1564 125.503 53.2444C122.666 54.3884 104.846 61.0765 88.5325 49.4603C88.5325 49.4603 88.1778 46.7323 89.8624 45.7643Z" fill="#662C69"/>
<path d="M112.293 56.2364C112.293 58.2604 110.609 59.9324 108.481 59.9324C106.442 59.9324 104.757 58.2604 104.757 56.2364C104.757 54.1244 106.442 52.4523 108.481 52.4523C110.609 52.4523 112.293 54.1244 112.293 56.2364Z" fill="#009A91"/>
<path d="M107.417 29.66C107.417 29.66 99.7921 30.012 100.147 34.1481C100.501 38.2842 104.491 38.9002 104.491 38.9002C104.491 38.9002 108.569 44.3563 114.687 39.5162L116.017 39.1642C116.017 39.1642 119.297 37.9322 119.563 34.1481C119.74 30.3641 112.027 29.396 107.417 29.66Z" fill="#FBF8F4"/>
<path d="M117.169 36.9641C117.169 36.7881 116.992 36.7001 116.815 36.7001C116.637 36.7881 116.549 36.9641 116.549 37.1401C116.815 38.1081 116.46 38.4601 115.219 38.8121C114.421 39.0761 111.85 37.6681 110.342 36.7001L110.254 33.7081C111.406 33.444 112.648 31.86 113.446 30.716C113.8 30.1 113.534 29.396 112.825 29.22C111.14 28.78 109.456 28.78 108.303 28.868C107.683 28.868 107.239 29.572 107.417 30.188C107.771 31.42 108.569 33.18 109.633 33.62L109.19 36.6121C107.505 37.4921 104.846 38.5481 104.136 38.1961C102.895 37.7561 102.54 37.3161 102.895 36.3481C102.984 36.1721 102.895 35.9961 102.718 35.9961C102.54 35.9081 102.363 35.9961 102.363 36.1721C101.831 37.7561 102.806 38.2841 103.87 38.8121C104.048 38.9001 104.225 38.9001 104.491 38.9001C105.998 38.9001 108.924 37.4041 109.545 37.1401C109.633 37.0521 109.722 36.9641 109.722 36.8761C109.722 36.9641 109.811 37.0521 109.899 37.1401C110.52 37.5801 113.446 39.5161 114.953 39.5161C115.13 39.5161 115.219 39.4281 115.396 39.4281C116.46 39.0761 117.524 38.6361 117.169 36.9641Z" fill="#272424"/>
<path d="M103.427 25.0839C103.427 25.788 102.895 26.404 102.186 26.404C101.477 26.404 100.945 25.788 100.945 25.0839C100.945 24.4679 101.477 23.8519 102.186 23.8519C102.895 23.8519 103.427 24.4679 103.427 25.0839Z" fill="#272424"/>
<path d="M120.45 26.404C120.45 27.02 119.918 27.636 119.208 27.636C118.499 27.636 117.967 27.02 117.967 26.404C117.967 25.7 118.499 25.084 119.208 25.084C119.918 25.084 120.45 25.7 120.45 26.404Z" fill="#272424"/>
<path d="M103.427 31.332C103.161 31.244 95.1818 29.22 92.5221 32.2121C92.4334 32.3001 92.4334 32.3881 92.5221 32.4761H92.6107C92.6994 32.4761 92.6994 32.4761 92.6994 32.4761C95.2705 29.572 103.338 31.596 103.427 31.596C103.516 31.6841 103.516 31.596 103.604 31.508C103.604 31.42 103.516 31.332 103.427 31.332Z" fill="#FBF8F4"/>
<path d="M103.072 32.6521C102.718 32.5641 94.5612 32.0361 92.5221 35.4681C92.4334 35.5561 92.4334 35.6441 92.5221 35.7321C92.6107 35.7321 92.6107 35.7321 92.6107 35.7321C92.6994 35.7321 92.6994 35.6441 92.788 35.6441C94.7385 32.3881 102.984 32.9161 103.072 32.9161C103.161 32.9161 103.25 32.9161 103.25 32.8281C103.25 32.7401 103.161 32.6521 103.072 32.6521Z" fill="#FBF8F4"/>
<path d="M102.806 33.7961C102.452 33.7961 94.3839 35.3801 93.2313 39.1642C93.2313 39.2522 93.2313 39.3402 93.32 39.3402H93.4086C93.4973 39.3402 93.4973 39.3402 93.4973 39.2522C94.6499 35.6441 102.806 34.0601 102.895 34.0601C102.895 34.0601 102.984 33.9721 102.984 33.8841C102.984 33.7961 102.895 33.7961 102.806 33.7961Z" fill="#FBF8F4"/>
<path d="M116.815 32.0361C117.169 31.9481 125.237 30.3641 127.72 33.5321C127.72 33.6201 127.72 33.7081 127.631 33.7081L127.542 33.7961L127.454 33.7081C125.06 30.7161 116.903 32.3001 116.815 32.3001C116.726 32.3001 116.726 32.3001 116.637 32.2121C116.637 32.1241 116.726 32.0361 116.815 32.0361Z" fill="#FBF8F4"/>
<path d="M117.081 33.2681C117.435 33.2681 125.68 33.1801 127.542 36.7001C127.542 36.7881 127.542 36.8761 127.454 36.9641H127.365C127.276 36.9641 127.276 36.9641 127.276 36.8761C125.503 33.5321 117.169 33.6201 117.081 33.6201C116.992 33.6201 116.903 33.5321 116.903 33.4441C116.903 33.3561 116.992 33.2681 117.081 33.2681Z" fill="#FBF8F4"/>
<path d="M117.347 34.5001C117.613 34.5881 125.592 36.5241 126.567 40.3962C126.567 40.4842 126.567 40.5722 126.478 40.5722C126.39 40.5722 126.39 40.5722 126.39 40.5722C126.301 40.5722 126.301 40.4842 126.301 40.4842C125.415 36.7881 117.347 34.7641 117.258 34.7641C117.169 34.7641 117.081 34.6761 117.169 34.5881C117.169 34.5001 117.258 34.4121 117.347 34.5001Z" fill="#FBF8F4"/>
</svg>
