<svg width="152" height="205" viewBox="0 0 152 205" fill="none" xmlns="http://www.w3.org/2000/svg">
<path d="M113.377 52.4407C117.177 43.1094 122.333 33.6312 120.976 23.7121C119.387 12.544 109.151 3.50658 97.5584 0.934964C86.0046 -1.67339 73.5978 1.41255 63.4398 7.25378C53.2817 13.1318 45.0622 21.5813 37.6569 30.3983C22.5749 48.3628 9.97424 68.6051 3.88716 90.7944C-2.2387 113.021 -1.50204 137.377 8.8111 158.134C18.4264 177.421 36.2224 192.887 57.3139 200.272C81.0419 208.611 109.461 206.113 129.312 191.234C149.124 176.319 158.08 148.582 147.535 126.797C140.866 112.91 127.994 103.101 118.301 91.272C108.957 79.81 107.872 65.8865 113.377 52.4407Z" fill="#FAC213"/>
<path d="M113.958 69.8174C114.113 73.8953 115.47 78.4507 119.308 80.2508C122.139 81.6101 125.706 81.0223 128.342 79.3324C131.017 77.6792 132.878 75.1076 134.352 72.4258C136.988 67.6132 138.578 62.0659 137.647 56.7022C136.562 50.3099 129.622 41.493 122.216 46.7464C115.742 51.412 113.609 62.6537 113.958 69.8174Z" fill="#FFD93D"/>
<path d="M127.529 91.5292C127.567 93.0354 127.878 94.5784 128.963 95.6805C130.514 97.297 133.383 97.4072 135.244 96.1214C137.105 94.8356 137.919 92.4109 137.493 90.2801C137.028 88.0391 134.934 84.7328 132.181 84.843C128.769 84.99 127.451 88.8841 127.529 91.5292Z" fill="#FAC213"/>
<path d="M37.3083 23.5284C39.8672 21.067 42.4649 18.5689 44.0545 15.4829C45.6441 12.3603 46.1094 8.53957 44.2871 5.52711C42.271 2.14728 37.7348 0.604311 33.625 1.04516C29.5541 1.48601 25.832 3.5433 22.5752 5.89449C18.8144 8.61305 15.3638 11.9561 13.464 16.0707C11.5642 20.1486 11.4091 25.1816 13.9293 29.0023C16.1004 32.3086 21.6447 34.9904 25.7932 33.6679C30.1356 32.3086 34.2066 26.5041 37.3083 23.5284Z" fill="#FFD93D"/>
<path d="M62.199 125.621C57.7403 128.524 53.1266 131.463 47.8925 132.785C45.256 133.446 42.1931 133.667 39.8668 132.197C37.1528 130.507 36.2999 126.944 36.9977 123.895C37.6569 120.882 39.5954 118.237 41.4952 115.702L59.6014 107.694L62.199 125.621Z" fill="#F4AB92"/>
<path d="M56.616 110.633C46.2253 139.214 39.5566 185.026 39.5566 185.026L57.3914 185.907L70.1859 108.906L56.616 110.633Z" fill="#06819D"/>
<path d="M62.8974 104.865C55.0268 131.205 46.7686 170.514 46.7686 170.514L47.544 174.409L46.7686 178.854H64.1768L70.1864 108.906L62.8974 104.865Z" fill="#FEFEFE"/>
<path d="M62.8974 104.865C59.8345 115.115 56.694 127.348 54.0188 138.443C57.0429 137.377 59.9508 136.055 62.7035 134.475L58.7101 166.877C58.555 167.98 57.5857 168.788 56.4226 168.788C55.6472 168.788 54.9493 169.155 54.5228 169.78L53.5535 171.139C53.3209 171.543 52.9332 171.837 52.4679 171.984L48.9785 173.27H54.7554C56.2675 173.27 57.5857 174.298 57.8571 175.731L58.4775 178.854H64.1768L70.1864 108.906L62.8974 104.865Z" fill="#ECEBE8"/>
<path d="M48.203 178.854L46.1094 195.422C49.7151 197.296 53.4759 198.912 57.3143 200.272C73.3655 205.892 91.5492 206.59 107.794 201.851L107.678 199.757C107.523 196.377 107.174 192.961 106.748 189.581L105.274 178.854H48.203Z" fill="#435172"/>
<path d="M106.592 188.552L105.274 178.854H58.4769L54.3672 191.234L106.592 188.552Z" fill="#4F3456"/>
<path d="M70.2637 62.0658L72.6675 68.4581L89.0289 63.8292L82.748 46.526L70.2637 62.0658Z" fill="#F9D1B5"/>
<path d="M82.748 46.526L70.2637 62.0658L71.9308 66.5111C80.9645 64.1231 82.9031 49.3915 82.748 46.526Z" fill="#57324F"/>
<path d="M41.8054 25.2551C41.4952 28.0471 41.534 30.8759 42.3482 33.5577C43.1236 36.2395 44.752 38.7744 47.1558 40.3541C46.8457 35.3578 47.1171 30.2146 47.9313 25.2918C46.1478 25.8796 43.6277 25.6592 41.8054 25.2551Z" fill="#853C4E"/>
<path d="M84.0274 30.0676C82.5541 24.7407 79.181 19.8179 74.257 16.9157C69.3719 13.9767 62.9746 13.2052 57.6242 15.336C51.9636 17.6137 48.0089 22.9039 46.5744 28.5981C45.1398 34.2557 45.9928 40.2806 47.7763 45.8647C49.5598 51.2283 52.3513 56.4818 57.0038 59.9718C61.6564 63.4618 68.4413 64.7477 73.6367 62.0658C76.467 60.5963 78.6382 58.0615 80.1115 55.3062C84.0661 47.9954 86.1986 38.1131 84.0274 30.0676Z" fill="#F9D1B5"/>
<path d="M76.2734 11.6622C76.157 11.8094 76.0795 11.9566 76.002 12.1405C76.1183 11.9934 76.1958 11.8094 76.2734 11.6622Z" fill="#FEFEFE"/>
<path d="M72.9772 36.1661C71.9692 34.5129 70.0306 33.3373 67.9757 33.2271C65.9596 33.1169 63.866 34.0353 62.6641 35.5783C65.8821 35.2109 69.798 35.615 72.9772 36.1661Z" fill="#853C4E"/>
<path d="M52.9711 36.4599C52.661 36.0191 52.312 35.5782 51.8468 35.2476C51.4203 34.917 50.8775 34.6598 50.3347 34.6598C49.3654 34.6231 48.5124 35.3578 48.1247 36.2028C47.737 37.0477 47.6982 38.0029 47.6982 38.9213C49.1715 37.8927 51.2264 36.8273 52.9711 36.4599Z" fill="#853C4E"/>
<path d="M70.6903 41.3827C70.7679 40.8317 70.6128 40.1704 70.1088 39.5826C69.6435 39.0315 68.8681 38.6274 67.9763 38.5907C67.1234 38.554 66.3092 38.8846 65.7664 39.3989C65.2236 39.9132 64.9522 40.5745 64.9909 41.1256C65.6888 40.2439 66.852 39.6561 67.9376 39.7296C69.0232 39.7663 70.1088 40.4643 70.6903 41.3827Z" fill="#57324F"/>
<path d="M53.6308 42.7788C53.4757 42.2644 53.088 41.6766 52.5452 41.3093C52.0412 40.9052 51.4208 40.6847 50.9168 40.8684C50.4128 41.0521 50.1026 41.5664 50.0251 42.1542C49.9475 42.742 50.1026 43.4033 50.3352 43.8809C50.374 42.9257 50.7617 42.1175 51.382 41.9338C52.0024 41.7134 52.9329 42.0807 53.6308 42.7788Z" fill="#57324F"/>
<path d="M63.0911 47.7016C61.3852 47.8853 59.6405 48.0322 57.9346 48.1792C58.4774 49.0976 59.3691 49.7956 60.4547 49.7221C61.5791 49.6119 62.7034 48.6935 63.0911 47.7016Z" fill="#F4AB92"/>
<path d="M73.3264 49.6119C68.8677 51.8896 64.0213 53.506 59.0586 54.4245C61.0359 56.0042 63.4397 57.5104 66.0374 57.6206C68.0923 57.6941 70.2247 56.8491 71.6205 55.3797C73.0162 53.9102 73.6366 51.5957 73.3264 49.6119Z" fill="#FEFEFE"/>
<path d="M73.0942 57.4737C71.5821 58.4656 69.9537 59.2371 68.209 59.7147C68.8681 59.9351 69.6047 60.2657 70.3026 60.2657C71.0005 60.229 71.7372 60.0086 72.28 59.6045C72.784 59.1636 73.1717 58.135 73.0942 57.4737Z" fill="#F4AB92"/>
<path d="M79.0261 45.6075C79.0261 46.7464 76.7774 47.7015 73.9859 47.7015C71.2331 47.7015 68.9844 46.7464 68.9844 45.6075C68.9844 44.4319 71.2331 43.4767 73.9859 43.4767C76.7774 43.4767 79.0261 44.4319 79.0261 45.6075Z" fill="#F4AB92"/>
<path d="M54.6776 46.3423C55.0266 47.1137 54.3287 48.1424 53.088 48.6567C51.8861 49.171 50.6066 48.9506 50.2577 48.2159C49.9087 47.4811 50.6066 46.4525 51.8473 45.9381C53.0492 45.4238 54.3287 45.6075 54.6776 46.3423Z" fill="#F4AB92"/>
<path d="M69.4107 28.2307C71.1942 33.7781 76.6609 35.9456 79.8402 35.8721L84.6478 33.227C84.4927 32.1616 84.2988 31.0963 84.0274 30.0676C83.3683 27.6429 82.3215 25.3285 80.887 23.2345C69.4495 24.2631 58.0895 25.8061 46.8071 27.8266C46.7295 28.0838 46.652 28.341 46.5744 28.5981C46.2643 29.9574 46.0316 31.3167 45.9541 32.676C53.9797 32.8596 62.0829 31.3534 69.4107 28.2307Z" fill="#F4AB92"/>
<path d="M84.1432 43.7706C81.4292 42.044 79.7621 38.9581 79.8396 35.8721C75.4972 34.6965 71.5813 31.28 70.5733 27.0919C63.1292 29.6268 55.2199 30.5085 47.3106 30.6187C44.7904 30.6554 42.2315 30.5452 39.8665 29.6635C37.5402 28.7818 35.4466 26.9817 34.9038 24.6305C34.0508 21.067 36.9586 17.6504 40.0216 15.4094C49.7919 8.35588 63.8271 6.9966 74.9157 12.0296C74.4504 10.1927 74.3729 8.61304 73.9076 6.81291C74.9932 7.14355 75.9237 7.95177 76.3114 8.98041C76.7379 10.0091 76.6216 11.1847 76.0013 12.1398C76.4277 11.1112 77.3583 10.303 78.4438 9.93558C79.5294 9.53147 80.7701 9.60495 81.8169 10.1193C80.615 11.0377 79.3744 11.9929 78.1725 12.8746C80.46 12.1398 83.2515 13.0215 85.1513 14.4175C87.0511 15.8136 88.2917 17.9076 88.9509 20.0751C89.61 22.2793 89.7263 24.5938 89.7263 26.8715C89.7263 29.4798 89.5712 32.0882 89.261 34.6598C89.0672 36.3497 88.7958 38.0396 88.0979 39.6193C87.4388 41.1623 86.3144 42.6318 84.7636 43.4767L84.1432 43.7706Z" fill="#853C4E"/>
<path d="M36.8423 24.2999C37.3851 21.6548 39.1686 19.3036 41.3786 17.6137C43.5885 15.887 46.225 14.7114 48.9002 13.7563C53.2038 12.25 57.74 11.1847 62.315 11.2214C66.9288 11.2949 71.5813 12.5439 75.1871 15.2258C78.8703 13.8297 83.4453 15.2258 86.2369 17.8708C87.5939 19.1566 88.6019 20.6261 89.4161 22.2793C89.2998 21.5446 89.1447 20.8098 88.9509 20.0751C88.2917 17.9076 87.0511 15.8136 85.1513 14.4175C83.2515 13.0215 80.46 12.1398 78.1725 12.8746C79.3744 11.9929 80.615 11.0377 81.8169 10.1193C80.7701 9.60495 79.5294 9.53147 78.4438 9.93558C77.5521 10.2295 76.7379 10.854 76.2727 11.6622C76.1951 11.8092 76.1176 11.9929 76.0013 12.1398C76.0788 11.9561 76.1563 11.8092 76.2727 11.6622C76.6216 10.8173 76.6604 9.82537 76.3114 8.98041C75.9237 7.95177 74.9932 7.14355 73.9076 6.81291C74.3729 8.61304 74.4504 10.1927 74.9157 12.0296C63.8271 6.9966 49.7919 8.35588 40.0216 15.4094C36.9586 17.6504 34.0508 21.067 34.9038 24.6305C35.1752 25.8796 35.9118 26.9817 36.9199 27.8634C36.6097 26.6878 36.6097 25.4755 36.8423 24.2999Z" fill="#A95E63"/>
<path d="M86.9354 34.7333C88.3311 34.072 90.1534 34.1822 91.2777 35.2109C92.6347 36.4232 92.596 38.4805 92.2858 40.2439C92.0532 41.493 91.7042 42.7788 91.0839 43.9176C90.4248 45.0565 89.4555 46.0484 88.176 46.526C81.0034 49.2445 82.3216 36.8641 86.9354 34.7333Z" fill="#F9D1B5"/>
<path d="M89.4551 36.6069C87.9431 36.6069 86.6248 37.6723 86.0045 38.9948C85.3842 40.3173 85.3454 41.7868 85.4229 43.2196C85.4617 43.5135 85.5005 43.8441 85.6168 44.1013C85.7719 44.3952 86.0433 44.6523 86.3534 44.6891C86.935 44.7258 87.3615 44.138 87.5941 43.587C87.8655 42.9624 88.0594 42.2644 87.9431 41.6031C87.788 40.9419 87.1289 40.3173 86.431 40.3908C86.431 39.6561 86.8575 38.7744 87.3227 38.1498C87.788 37.562 88.7185 36.8273 89.4551 36.6069Z" fill="#F4AB92"/>
<path d="M69.6816 75.9525L69.9143 69.2296L90.3079 63.4986L92.6342 67.7601L69.6816 75.9525Z" fill="#85CBD8"/>
<path d="M76.0406 71.838L80.6931 69.5603C86.7802 66.5845 93.9916 66.3641 100.234 69.0092C106.941 71.838 111.788 77.569 113.222 84.3654L114.308 89.4719C117.061 102.33 117.565 115.555 115.781 128.597L107.949 185.907H57.3916L68.9842 116.511L76.0406 71.838Z" fill="#47A9C4"/>
<path d="M92.6341 93.8436L72.4343 126.54H69.7203L65.3779 138.112L72.5506 93.8436H92.6341Z" fill="#0B7593"/>
<path d="M104.188 110.633C96.3952 125.438 72.4346 151.595 72.4346 151.595L74.3731 150.713C82.4375 146.966 89.0674 140.941 93.371 133.483C99.5357 122.756 103.762 116.18 104.188 110.633Z" fill="#06819D"/>
<path d="M100.505 144.027C92.8287 149.097 84.6092 153.395 76.002 156.848C85.656 156.738 95.0774 151.631 100.505 144.027Z" fill="#06819D"/>
<path d="M35.0205 73.1605C30.872 84.7328 31.6862 97.848 37.2305 108.869C39.0527 112.433 41.5728 115.996 45.45 117.356C46.3029 120.294 46.9233 123.38 47.2722 126.43C47.5048 128.45 49.7148 129.663 51.6146 128.818C52.0799 128.634 52.5063 128.413 52.9328 128.193C53.8633 127.642 54.4449 126.687 54.4449 125.658C54.4061 122.168 53.8633 118.347 53.3593 115.004L58.4771 112.837C59.2138 115.261 59.6402 117.613 59.8729 119.413C60.1443 121.433 62.5093 122.535 64.3316 121.507C64.3703 121.47 64.3703 121.47 64.4091 121.47C65.3008 120.956 65.8436 120.037 65.8436 119.009C65.7661 114.27 64.254 110.375 64.254 110.375C73.0939 91.7496 54.4449 70.1481 54.4449 70.1481L35.0205 73.1605Z" fill="#7E81A0"/>
<path d="M45.9152 80.1039C50.2188 79.3691 54.4448 75.9526 55.8406 71.8747C54.9876 70.7726 54.4448 70.1481 54.4448 70.1481L35.0205 73.1605C34.6327 74.2259 34.2838 75.3648 33.9736 76.5036C37.1141 79.3691 41.6116 80.8754 45.9152 80.1039Z" fill="#45557C"/>
<path d="M64.2536 110.375C65.5331 107.694 66.2309 104.938 66.5023 102.22C57.7788 106.261 48.7451 109.751 39.5176 112.653C41.0684 114.747 43.007 116.511 45.4496 117.355C45.8373 118.751 46.1862 120.148 46.4964 121.58C48.939 120.478 51.3816 119.376 53.8242 118.274C53.6691 117.172 53.514 116.07 53.3589 115.004L58.4767 112.837C58.7869 113.865 59.0195 114.857 59.2521 115.813C61.1907 114.968 63.1293 114.086 65.1066 113.204C64.6801 111.478 64.2536 110.375 64.2536 110.375Z" fill="#45557C"/>
<path d="M45.9152 80.1039C50.2188 79.3691 54.4448 75.9526 55.8406 71.8747C55.7243 71.7645 55.6468 71.6175 55.5304 71.5073V71.4706C55.259 71.1032 55.0264 70.8093 54.8326 70.6256C54.8326 70.5889 54.8326 70.5889 54.8326 70.5889C54.7162 70.442 54.5999 70.3317 54.5612 70.2583C54.4836 70.1848 54.4448 70.1481 54.4448 70.1481L35.0205 73.1605C34.7878 73.7116 34.6327 74.2994 34.4389 74.8872C34.2838 75.4382 34.1287 75.9526 33.9736 76.5036C37.1141 79.3691 41.6116 80.8754 45.9152 80.1039Z" fill="#45557C"/>
<path d="M40.6815 117.172C41.6895 118.751 41.8058 120.772 41.0304 122.462C40.255 124.152 38.5878 125.438 36.6493 125.842C34.6719 126.246 32.6171 125.658 30.5622 125.621C25.2118 125.511 20.094 129.479 19.1247 134.475C18.1554 139.471 21.4897 144.872 26.53 146.562C28.5461 147.223 30.8724 147.296 32.6171 146.158C34.3618 145.055 35.0984 142.447 33.7027 140.978C32.3457 139.545 29.9806 139.692 28.1196 138.957C26.0647 138.112 24.669 136.055 24.7077 133.961C24.7853 131.867 26.2586 129.883 28.3522 129.148C30.4846 128.413 32.8109 128.928 35.0984 128.818C38.3164 128.671 41.4569 127.054 43.3955 124.593C45.334 122.095 45.9931 118.788 45.2177 115.813C43.9383 116.07 41.9609 116.878 40.6815 117.172Z" fill="#7E81A0"/>
<path d="M45.2169 115.813C43.9374 116.07 41.9601 116.878 40.6807 117.172C41.6499 118.751 41.805 120.772 41.0296 122.425C42.3478 122.535 43.666 122.352 44.868 121.911C45.6046 119.964 45.7597 117.833 45.2169 115.813Z" fill="#45557C"/>
<path d="M51.2656 88.5534L68.9841 116.511L92.6345 93.8436C96.9769 89.6923 98.0625 83.4102 95.3485 78.1568C91.4326 70.5154 81.1582 68.0907 73.8693 73.087L51.2656 88.5534Z" fill="#47A9C4"/>
<path d="M72.4348 108.906C69.3331 102.183 62.5869 92.3006 57.3916 86.8268C60.5321 93.5497 67.2783 103.432 72.4348 108.906Z" fill="#06819D"/>
<path d="M59.873 102.146L66.0377 107.73C68.1701 109.641 71.5044 109.788 73.7919 108.061L91.8981 94.5784L68.9843 116.511L59.873 102.146Z" fill="#06819D"/>
<path d="M52.0022 89.6923L33.5859 104.204C30.0965 106.922 29.1659 111.625 31.3371 115.372C33.7022 119.486 39.0138 121.139 43.4725 119.229L64.913 110.082L52.0022 89.6923Z" fill="#F9D1B5"/>
<path d="M52.0023 89.6923L64.9131 110.082L56.5773 113.645L58.6709 111.404C60.0667 109.898 60.3769 107.73 59.4464 105.967L51.2656 90.2434L52.0023 89.6923Z" fill="#F4AB92"/>
<path d="M51.0721 86.9002C50.3355 85.8348 49.4049 84.696 48.0867 84.5123C47.1174 84.3653 46.1482 84.7327 45.2952 85.1736C44.6361 85.4675 43.977 85.8348 43.5893 86.4594C42.9302 87.4513 43.6668 88.1493 44.1708 88.9942C44.7912 90.0229 45.1401 91.2352 45.5278 92.3741C45.838 93.2925 46.1869 94.2477 46.691 95.0559C48.7458 93.366 51.1109 92.0067 53.6698 91.1617C53.0882 89.6188 52.0802 88.2228 51.0721 86.9002Z" fill="#7E81A0"/>
<path d="M53.6693 91.1618C51.1103 92.0068 48.7453 93.366 46.6904 95.056C46.9231 95.4233 47.1945 95.7907 47.4659 96.1213C48.4739 97.15 49.986 97.8113 51.4205 97.4806C52.7 97.15 53.6305 96.0846 53.9794 94.909C54.3284 93.6967 54.1733 92.4109 53.708 91.272C53.708 91.2353 53.6693 91.1985 53.6693 91.1618Z" fill="#9EABB6"/>
<path d="M45.799 94.5784C44.3257 95.754 41.6505 95.7173 40.1384 94.5049C39.1304 93.6967 38.5488 92.4844 38.3162 91.2353C38.1223 89.9862 38.1999 88.7004 38.2774 87.4514C36.3389 95.056 39.5569 99.4645 39.5569 99.4645L45.799 94.5784Z" fill="#45557C"/>
<path d="M46.4971 91.6027C46.1094 90.4638 45.7992 89.2882 45.1789 88.2228C44.6749 87.3779 43.9382 86.6799 44.5585 85.6879C44.6361 85.5777 44.7136 85.5043 44.7912 85.4308C44.3259 85.6879 43.8607 86.0186 43.5893 86.4594C42.9302 87.4513 43.6668 88.1493 44.1708 88.9943C44.7912 90.023 45.1401 91.2353 45.5278 92.3741C45.838 93.2926 46.1869 94.2477 46.691 95.056C47.0011 94.7988 47.3501 94.5416 47.6602 94.2845C47.1562 93.4763 46.8073 92.5578 46.4971 91.6027Z" fill="#45557C"/>
<path d="M48.4739 95.3499C48.1637 95.0192 47.8923 94.6519 47.6597 94.2845C47.3495 94.5416 47.0006 94.7988 46.6904 95.056C46.9231 95.4233 47.1945 95.7907 47.4659 96.1213C48.4739 97.15 49.986 97.8113 51.4205 97.4806C52.0796 97.2969 52.6612 96.9296 53.1265 96.4152C52.8938 96.5622 52.6612 96.6357 52.4286 96.7091C50.994 97.0765 49.4432 96.3785 48.4739 95.3499Z" fill="#7E81A0"/>
<path d="M65.5721 78.3772C64.8355 77.3119 63.9049 76.173 62.5867 75.9893C61.6174 75.8424 60.6482 76.2097 59.7952 76.6506C59.1361 76.9445 58.477 77.3119 58.0893 77.9364C57.4302 78.9283 58.1668 79.6263 58.6708 80.4713C59.2912 81.4999 59.6401 82.7122 60.0278 83.8511C60.338 84.7695 60.6869 85.7247 61.191 86.5329C63.2458 84.843 65.6109 83.4837 68.1698 82.602C67.5882 81.0958 66.5802 79.6998 65.5721 78.3772Z" fill="#7E81A0"/>
<path d="M68.1702 82.602C65.6113 83.4837 63.2463 84.843 61.1914 86.5329C61.424 86.9003 61.6567 87.2676 61.9668 87.5615C62.9749 88.6269 64.487 89.2882 65.9215 88.9576C67.2009 88.6269 68.1315 87.5615 68.4804 86.3859C68.8293 85.1736 68.6355 83.8878 68.209 82.7122C68.209 82.6755 68.1702 82.6387 68.1702 82.602Z" fill="#9EABB6"/>
<path d="M60.9971 83.0796C60.6094 81.9407 60.2992 80.7651 59.6401 79.6997C59.1749 78.8548 58.4382 78.1568 59.0585 77.1649C59.1361 77.0547 59.2136 76.9812 59.2912 76.9077C58.8259 77.1649 58.3607 77.4955 58.0893 77.9364C57.4302 78.9283 58.1668 79.6263 58.6708 80.4712C59.2912 81.4999 59.6401 82.7122 60.0278 83.8511C60.338 84.7695 60.6869 85.7247 61.191 86.5329C61.5011 86.2757 61.8501 86.0186 62.1602 85.7614C61.6562 84.9532 61.3073 83.998 60.9971 83.0796Z" fill="#45557C"/>
<path d="M62.9749 86.8268C62.6647 86.4962 62.3933 86.1288 62.1607 85.7614C61.8505 86.0186 61.5016 86.2758 61.1914 86.5329C61.424 86.9003 61.6567 87.2677 61.9668 87.5616C62.9749 88.6269 64.487 89.2882 65.9215 88.9576C66.5806 88.7739 67.1622 88.4065 67.6274 87.8922C67.3948 88.0024 67.1622 88.1126 66.9295 88.1861C65.495 88.5167 63.9442 87.8555 62.9749 86.8268Z" fill="#7E81A0"/>
<path d="M46.8454 52.4039C42.4643 52.4407 36.6486 53.7632 33.0429 56.0777L29.127 47.7015C26.2967 70.0011 29.7861 76.5403 37.2689 77.3853C44.7906 78.2303 54.8323 73.5646 57.3912 70.4419C59.9501 67.356 56.9647 59.2738 46.574 46.526L46.8454 52.4039Z" fill="#7E81A0"/>
<path d="M43.0068 62.7271C41.9212 61.4413 40.4091 60.5229 38.7032 60.3025C36.9973 60.082 35.175 60.7066 34.1282 61.9556C33.1589 63.1312 32.9263 64.6742 32.7324 66.1437C34.6322 66.3641 36.6483 66.5111 38.4706 66.0335C40.2928 65.5559 42.1151 64.3068 43.0068 62.7271Z" fill="#FEFEFE"/>
<path d="M37.5405 65.7029C39.2464 65.7029 40.6034 64.4171 40.6034 62.8006C40.6034 61.8087 40.0994 60.927 39.2852 60.4127C39.0913 60.3392 38.8975 60.3025 38.7036 60.3025C37.3854 60.1188 36.0284 60.4494 34.9816 61.1842C34.6714 61.625 34.4775 62.2128 34.4775 62.8006C34.4775 64.4171 35.8345 65.7029 37.5405 65.7029Z" fill="#2B3162"/>
<path d="M46.5743 61.6985C46.5356 60.1188 47.0396 58.6493 48.0477 57.7676C48.9782 56.9226 50.3352 56.6654 51.5758 57.1798C52.7002 57.6206 53.5919 58.5758 54.4449 59.4942C53.6695 60.4494 52.7002 61.4413 51.4595 61.9924C50.1025 62.5434 48.164 62.5067 46.5743 61.6985Z" fill="#FEFEFE"/>
<path d="M51.7693 61.2943C50.8 62.1026 49.2104 61.8087 48.2411 60.5596C47.6596 59.7881 47.5045 58.8329 47.6983 58.0982C47.8146 57.988 47.931 57.8778 48.0473 57.7676C48.7451 57.143 49.7144 56.8491 50.6837 56.9593C51.1102 57.143 51.5367 57.4737 51.8468 57.8778C52.6998 59.0166 52.6998 60.5229 51.7693 61.2943Z" fill="#2B3162"/>
<path d="M53.0101 66.0702C52.9713 66.7682 52.6224 67.503 52.0021 68.0173C51.3817 68.5316 50.5288 68.7521 49.6758 68.6786C48.8228 68.6051 48.0474 68.201 47.4658 67.6132C46.923 67.0254 46.5353 66.3274 46.3802 65.6661C46.3415 65.7763 46.1864 65.8131 46.0701 65.7029C46.419 66.3641 46.5741 67.1724 46.4578 67.9806C46.3415 68.7888 45.8762 69.5603 45.1783 70.1113C44.4417 70.6257 43.5499 70.8828 42.697 70.8093C41.844 70.7359 41.0298 70.4052 40.4482 69.9277C40.836 70.5522 41.6114 71.14 42.6194 71.3237C43.5887 71.5441 44.7518 71.2869 45.6048 70.6624C46.4578 70.0011 47.0006 68.9725 47.0006 68.0173C47.0006 67.9438 47.0006 67.8704 47.0006 67.7969C47.0394 67.8336 47.0394 67.9071 47.0781 67.9438C47.6209 68.6786 48.5902 69.2296 49.5983 69.3399C50.6451 69.4501 51.7694 69.046 52.3898 68.3479C53.0101 67.6499 53.204 66.7315 53.0101 66.0702Z" fill="#2B3162"/>
<path d="M33.0429 56.0776C31.841 56.8124 30.7942 57.7308 30.0575 58.9431C29.5535 54.7551 29.8249 49.2077 29.8249 49.2077L33.0429 56.0776Z" fill="#EC7691"/>
<path d="M46.8459 52.4039C48.4743 52.4774 50.0251 52.8081 50.0251 52.8081C48.5906 50.1262 46.6133 47.7016 46.6133 47.7016L46.8459 52.4039Z" fill="#EC7691"/>
<path d="M27.1504 72.7931C28.6625 72.0216 30.6786 70.993 32.6947 70.0378C34.7108 69.0827 36.7657 68.201 38.3553 67.503C36.6881 67.9438 34.5557 68.7153 32.5008 69.7072C30.4847 70.6624 28.5462 71.8012 27.1504 72.7931Z" fill="#2B3162"/>
<path d="M27.7314 75.5117C29.2048 74.4463 31.1045 73.0503 33.0819 71.7278C35.0204 70.4052 37.0753 69.1562 38.6262 68.201C36.9202 68.899 34.7878 70.0379 32.8105 71.3971C30.8331 72.7197 29.0109 74.2259 27.7314 75.5117Z" fill="#2B3162"/>
<path d="M31.415 75.7321C32.4231 74.8137 33.7025 73.6013 35.0595 72.4257C36.3778 71.2502 37.7735 70.1113 38.8203 69.2296C37.6572 69.9276 36.1839 70.993 34.8269 72.1686C33.4699 73.3809 32.268 74.6667 31.415 75.7321Z" fill="#2B3162"/>
<path d="M61.7731 61.6985C60.3773 61.625 58.4775 61.8087 56.6553 62.2128C54.833 62.6169 53.0883 63.3149 51.8477 63.9762C53.1659 63.4986 54.9494 62.9475 56.7328 62.5434C58.5163 62.1026 60.3773 61.8454 61.7731 61.6985Z" fill="#2B3162"/>
<path d="M64.0219 63.5353C62.3547 63.3149 60.1836 63.2782 58.0124 63.4986C55.8412 63.6823 53.7088 64.1599 52.1191 64.7109C53.7863 64.417 55.8799 64.0496 58.0511 63.866C60.1836 63.6455 62.3547 63.5721 64.0219 63.5353Z" fill="#2B3162"/>
<path d="M63.7499 65.3362C62.2378 65.0418 60.2605 64.8578 58.2831 64.8578C56.3058 64.8578 54.3285 65.0418 52.8164 65.3362C54.3285 65.2626 56.3058 65.189 58.2831 65.189C60.2605 65.189 62.2378 65.2626 63.7499 65.3362Z" fill="#2B3162"/>
<path d="M47.8151 63.4986C46.0704 63.3884 44.2869 63.9762 42.9687 65.0048C42.6586 65.262 42.7361 65.7028 43.085 65.8865C43.8992 66.2172 44.791 66.4376 45.6827 66.5111C46.2255 66.5478 46.7295 66.3274 47.0785 65.9233C47.505 65.4089 47.9314 64.8212 48.2416 64.2334C48.4355 63.9027 48.2028 63.4986 47.8151 63.4986Z" fill="#45557C"/>
</svg>
