<svg width="232" height="294" viewBox="0 0 232 294" fill="none" xmlns="http://www.w3.org/2000/svg">
<path d="M215.988 96.7101C215.988 150.111 172.732 193.37 119.397 193.37C66.0616 193.37 22.8058 150.111 22.8058 96.7101C22.8058 43.2584 66.0616 0 119.397 0C172.732 0 215.988 43.2584 215.988 96.7101Z" fill="#F8F9FA"/>
<path d="M91.9948 40.8241C88.2466 44.5262 87.031 50.1047 86.7271 55.4296C86.4232 60.7037 86.8284 66.0793 85.6128 71.2014C81.2568 89.3567 58.3627 98.5865 54.5638 116.843C53.2469 123.233 54.5132 129.927 52.8417 136.165C49.2455 149.807 33.0879 157.667 30.5047 171.563C28.8332 180.59 33.6957 189.87 40.6349 195.854C47.574 201.839 56.3873 205.186 64.9979 208.279C73.6592 211.373 82.5231 214.416 89.7662 219.994C96.9079 225.471 102.176 233.078 109.115 238.707C121.626 248.85 138.948 251.842 154.701 248.85C170.504 245.807 184.787 237.287 196.842 226.688C206.516 218.118 215.482 205.896 212.291 193.37C210.113 184.9 202.616 177.953 202.869 169.179C203.123 161.623 209.403 154.726 208.036 147.22C206.415 138.396 195.728 135.049 189.244 128.862C181.292 121.205 179.823 108.983 180.836 97.9272C181.799 86.9225 184.686 75.9684 183.521 64.9636C181.748 48.1776 169.643 32.9129 153.738 27.3851C142.747 23.5309 130.287 24.4945 119.751 29.4137C115.244 31.5436 110.736 34.84 107.595 38.5928C102.277 37.1728 96.3508 36.5135 91.9948 40.8241Z" fill="#512548"/>
<path d="M164.729 86.7703C162.247 85.9589 159.968 84.2854 158.145 82.054C156.321 79.8226 154.903 77.0841 153.789 74.1427C152.725 71.2014 151.965 68.0064 151.054 64.7101C150.142 61.4644 149.028 58.1174 147.204 55.0239C145.33 51.9303 142.848 49.2425 140.012 47.214C137.175 45.1348 133.934 43.7148 130.692 42.9541C127.45 42.2441 124.209 42.1934 121.22 42.6498C118.232 43.1062 115.497 44.1205 113.217 45.3376C115.649 44.4755 118.435 43.8669 121.322 43.7148C124.209 43.5627 127.248 43.8669 130.236 44.7291C136.162 46.4533 141.734 50.6625 145.077 56.2917C148.42 61.8701 149.483 68.8179 152.117 74.8527C153.434 77.8448 155.156 80.634 157.334 82.764C159.512 84.9447 162.146 86.3646 164.729 86.7703Z" fill="#6B3C60"/>
<path d="M165.54 79.0112C165.692 74.4977 165.641 69.2743 164.78 63.7465C163.919 58.2188 162.146 52.3361 158.854 47.214C157.182 44.6784 155.207 42.3456 152.877 40.4692C150.598 38.5421 147.913 37.0714 145.229 36.1585C142.494 35.2457 139.708 34.8907 137.125 35.0429C134.542 35.195 132.11 35.905 130.135 36.9192C132.262 36.26 134.643 35.8543 137.125 35.9557C139.607 36.0571 142.19 36.6657 144.672 37.6292C149.635 39.607 153.991 43.6134 157.081 48.3804C160.171 53.1982 162.045 58.6752 163.21 64.0508C164.426 69.3757 164.983 74.5485 165.54 79.0112Z" fill="#6B3C60"/>
<path d="M172.175 67.0936C172.732 64.7101 172.935 61.8194 172.58 58.7766C172.276 55.6831 171.365 52.4882 169.896 49.5468C168.478 46.5548 166.553 43.867 164.375 41.6863C162.197 39.5056 159.766 37.8828 157.537 36.8685C159.31 38.5421 161.234 40.5706 163.058 42.8527C164.831 45.1855 166.452 47.7719 167.819 50.5611C169.136 53.2996 170.149 56.241 170.858 59.0809C171.567 61.9209 171.972 64.6594 172.175 67.0936Z" fill="#6B3C60"/>
<path d="M171.01 163.702C168.883 161.014 167.414 157.566 166.604 153.661C165.793 149.807 165.591 145.547 165.54 141.236C165.439 136.926 165.337 132.463 164.527 128.304C164.122 126.225 163.514 124.247 162.703 122.422C161.944 120.647 160.931 119.075 159.816 117.807C161.133 120.951 161.893 124.602 162.146 128.609C162.4 132.615 162.248 136.926 162.298 141.338C162.4 145.75 162.906 150.263 164.324 154.32C165.033 156.349 165.945 158.225 167.11 159.848C168.224 161.42 169.592 162.739 171.01 163.702Z" fill="#6B3C60"/>
<path d="M179.114 143.417C178 140.932 176.835 138.092 175.771 135.049C174.657 132.007 173.745 128.71 173.036 125.363C172.327 122.016 171.871 118.618 171.618 115.373C171.365 112.127 171.314 109.084 171.314 106.346C170.453 108.932 169.845 112.026 169.693 115.373C169.491 118.77 169.795 122.371 170.504 125.87C171.263 129.369 172.479 132.818 173.948 135.81C175.467 138.802 177.291 141.388 179.114 143.417Z" fill="#6B3C60"/>
<path d="M76.597 150.923C75.8372 147.981 75.9892 144.583 77.0022 141.236C78.0152 137.889 79.8386 134.542 81.966 131.398C83.0296 129.826 84.1439 128.203 85.157 126.479C86.17 124.755 87.031 122.98 87.5375 121.052C88.044 119.125 88.1454 117.198 87.7908 115.423C87.4869 113.648 86.6765 112.076 85.6128 111.011C86.2713 112.381 86.6258 113.902 86.5752 115.525C86.5245 117.148 86.1193 118.77 85.5115 120.393C84.2452 123.588 81.814 126.53 79.5854 129.826C77.3061 133.122 75.5333 136.926 74.9255 140.729C74.6216 142.656 74.5709 144.533 74.8748 146.308C75.1787 148.032 75.7865 149.655 76.597 150.923Z" fill="#6B3C60"/>
<path d="M64.2888 146.257C63.6304 142.504 63.3264 138.244 63.9343 133.832C64.5421 129.42 65.9603 124.907 68.2396 120.85C70.4682 116.843 73.9631 113.395 76.4957 109.287C77.8126 107.258 78.8256 105.078 79.3321 102.897C79.8893 100.716 79.8893 98.5358 79.3828 96.7101C79.1802 100.514 77.1541 104.317 74.3177 107.715C72.8995 109.388 71.2786 111.113 69.6578 112.938C67.9863 114.764 66.3655 116.793 65.0992 119.075C62.516 123.639 61.2498 128.812 61.2498 133.629C61.1991 138.498 62.516 142.91 64.2888 146.257Z" fill="#6B3C60"/>
<path d="M87.7401 82.2061C89.057 81.8004 90.4753 81.0397 91.7922 79.9748C93.0584 78.9098 94.2234 77.5405 95.2364 76.0191C97.2625 72.9763 98.4274 69.2743 99.3392 65.6736C100.302 62.073 101.061 58.5738 102.277 55.4296C103.493 52.3361 105.164 49.5975 107.241 47.6197C105.974 48.2283 104.657 49.1918 103.493 50.3582C102.328 51.5754 101.315 52.9953 100.453 54.5674C98.6807 57.7624 97.6677 61.4644 96.756 65.0144C95.7936 68.5643 94.9325 72.0128 93.4637 75.0049C92.0454 78.0477 90.0701 80.5326 87.7401 82.2061Z" fill="#6B3C60"/>
<path d="M197.146 179.018C195.88 176.228 194.968 172.932 194.765 169.433C194.715 167.658 194.765 165.883 195.069 164.108C195.221 163.195 195.424 162.333 195.677 161.42C195.93 160.558 196.234 159.645 196.538 158.682C197.095 156.805 197.652 154.726 197.602 152.545C197.551 150.365 196.791 148.285 195.677 146.612C194.613 144.938 193.296 143.62 191.98 142.504C190.612 141.439 189.295 140.526 187.978 139.715C189.903 141.997 192.334 144.583 193.803 147.677C194.563 149.198 194.968 150.872 194.917 152.545C194.867 154.219 194.36 155.994 193.803 157.82C193.499 158.783 193.195 159.696 192.942 160.71C192.689 161.674 192.537 162.739 192.435 163.753C192.182 165.782 192.283 167.81 192.638 169.686C193.347 173.49 195.069 176.786 197.146 179.018Z" fill="#6B3C60"/>
<path d="M100.808 165.427C99.9976 162.637 99.1872 159.442 98.5794 156.045C97.9716 152.647 97.617 148.995 97.5664 145.395C97.5157 141.743 97.769 138.092 98.2755 134.644C98.782 131.246 99.4911 128.051 100.251 125.262C98.6807 127.696 97.2118 130.739 96.2495 134.238C95.2871 137.686 94.7299 141.541 94.7806 145.395C94.8312 149.249 95.4897 153.103 96.5534 156.552C97.6677 160 99.1872 163.043 100.808 165.427Z" fill="#6B3C60"/>
<path d="M142.19 162.891C143.659 160.66 145.077 157.87 146.242 154.726C147.356 151.582 148.167 148.133 148.572 144.583C149.028 141.084 149.028 137.534 148.622 134.187C148.268 130.891 147.508 127.848 146.596 125.363C146.698 128.051 146.799 131.094 146.698 134.289C146.647 137.534 146.444 140.932 146.039 144.33C145.685 147.677 145.077 151.024 144.368 154.168C143.709 157.363 142.899 160.305 142.19 162.891Z" fill="#6B3C60"/>
<path d="M175.67 105.331C175.467 103.1 175.214 100.514 175.163 97.8258C175.113 95.0873 175.163 92.1966 175.417 89.3567C175.721 86.5168 176.177 83.6768 176.734 81.0397C177.291 78.3519 178 75.867 178.658 73.737C177.341 75.5627 176.126 77.8955 175.163 80.5833C174.252 83.2204 173.543 86.1618 173.289 89.1539C172.986 92.1459 173.137 95.1887 173.543 97.978C173.999 100.716 174.758 103.252 175.67 105.331Z" fill="#6B3C60"/>
<path d="M173.441 152.14L142.95 144.279C138.796 149.959 132.06 153.712 125.019 153.965C117.168 154.32 109.317 150.263 104.86 143.823L58.464 152.14L54.2093 259.195H178.76L173.441 152.14Z" fill="#EF8B9E"/>
<path d="M90.3233 146.46L130.388 182.77L135.453 177.141L149.99 187.943L153.232 188.45C158.043 189.211 162.399 191.899 165.185 195.905L169.794 202.498C166.755 179.931 173.948 162.029 173.948 162.029L178.76 259.195H54.2093L58.464 152.14L90.3233 146.46Z" fill="#E8517D"/>
<path d="M101.872 152.292C104.05 155.132 107.241 157.921 111.293 159.899C115.294 161.927 120.106 163.144 124.918 163.043C129.78 162.992 134.541 161.674 138.492 159.544C142.494 157.414 145.634 154.523 147.66 151.633C144.824 153.762 141.379 155.791 137.429 157.211C133.579 158.732 129.223 159.595 124.867 159.696C120.562 159.747 116.206 158.935 112.255 157.566C108.304 156.247 104.809 154.32 101.872 152.292Z" fill="#E8517D"/>
<path d="M143.051 162.029C141.177 162.84 138.999 163.702 136.669 164.412C134.339 165.122 131.806 165.68 129.274 166.035C126.741 166.39 124.158 166.492 121.676 166.441C119.245 166.339 116.966 166.086 114.889 165.832C116.763 166.745 119.042 167.506 121.575 167.911C124.057 168.317 126.843 168.317 129.527 167.962C132.212 167.607 134.896 166.847 137.226 165.782C139.556 164.717 141.531 163.398 143.051 162.029Z" fill="#E8517D"/>
<path d="M125.019 153.965C132.06 153.712 138.796 149.959 142.95 144.279L139.86 143.468L138.29 120.241H109.875L107.089 143.417L104.86 143.823C109.317 150.263 117.168 154.32 125.019 153.965Z" fill="#F6BDB9"/>
<path d="M109.419 123.69C115.953 140.78 133.63 139.157 138.492 123.436L138.29 120.241H109.875L109.419 123.69Z" fill="#57324F"/>
<path d="M151.51 98.4344C152.928 96.0508 155.359 94.073 158.145 93.718C160.931 93.363 164.02 94.9352 164.932 97.623C165.793 100.361 164.375 103.303 162.754 105.636C161.589 107.36 160.272 108.983 158.601 110.098C156.929 111.265 154.751 111.873 152.776 111.316C147.103 109.794 149.382 101.984 151.51 98.4344Z" fill="#F6BDB9"/>
<path d="M162.4 98.0794C161.184 97.0651 159.36 96.9637 157.892 97.4708C156.372 98.0287 155.156 99.1443 154.194 100.463C153.282 101.781 152.624 103.252 152.016 104.723C151.763 105.179 151.56 105.686 151.51 106.193C151.459 106.751 151.56 107.309 151.915 107.664C152.523 108.323 153.637 108.171 154.447 107.766C155.815 107.106 156.879 105.889 157.334 104.419C157.79 102.948 157.638 101.325 156.929 100.006C158.145 98.4344 160.475 97.6737 162.4 98.0794Z" fill="#ECA4A9"/>
<path d="M98.6807 97.0144C97.2625 94.5802 94.8313 92.6531 92.0455 92.2981C89.2597 91.9431 86.17 93.5152 85.3089 96.1523C84.3972 98.8908 85.8154 101.832 87.4363 104.216C88.6012 105.889 89.9181 107.563 91.5896 108.678C93.3117 109.845 95.4391 110.403 97.4145 109.896C103.138 108.323 100.808 100.564 98.6807 97.0144Z" fill="#F6BDB9"/>
<path d="M87.7908 96.6087C89.057 95.6451 90.8298 95.493 92.3493 96.0509C93.8182 96.6087 95.0845 97.7244 95.9962 99.0429C96.9079 100.311 97.5664 101.781 98.2248 103.252C98.4274 103.759 98.63 104.216 98.6807 104.774C98.782 105.281 98.63 105.839 98.2755 106.244C97.6677 106.903 96.5534 106.751 95.743 106.346C94.3754 105.686 93.3117 104.419 92.8559 102.999C92.4 101.528 92.5519 99.9051 93.2611 98.5358C92.0454 97.0144 89.7155 96.203 87.7908 96.6087Z" fill="#ECA4A9"/>
<path d="M114.686 54.0603C110.482 54.821 107.443 58.6245 105.823 62.5294C104.202 66.485 103.543 70.7956 101.872 74.7513C100.403 78.0984 98.2249 81.1411 95.4897 83.5754C97.3132 110.2 103.999 127.442 122.791 128.355C141.633 129.217 151.104 110.555 153.789 90.1174C136.365 86.4153 141.987 76.222 136.162 63.7465C130.388 51.2203 120.207 50.8654 114.686 54.0603Z" fill="#F6BDB9"/>
<path d="M136.162 63.7465C130.388 51.2203 120.207 50.8654 114.686 54.0603C110.482 54.821 107.443 58.6245 105.823 62.5294C104.202 66.485 103.543 70.7956 101.872 74.7513C100.403 78.0984 98.2249 81.1411 95.4897 83.5754C95.591 85.2489 95.743 86.8717 95.895 88.4439C99.4912 85.8575 102.277 82.1047 103.746 77.8955C104.708 75.157 105.113 72.2156 105.62 69.325C106.126 66.4343 106.836 63.4929 108.254 60.9573C109.723 58.3709 112.053 56.241 114.94 55.5817C118.688 53.401 123.196 53.756 126.539 55.3788C129.882 57.0017 132.414 59.9937 134.035 63.3408C135.707 66.6879 136.568 70.3392 137.226 73.9906C138.239 79.214 138.999 84.7418 141.937 89.1538C144.418 92.8559 148.369 95.493 152.725 96.4565C153.13 94.3773 153.485 92.2473 153.789 90.1174C136.365 86.4153 141.987 76.222 136.162 63.7465Z" fill="#ECA4A9"/>
<path d="M113.724 79.0112C109.216 79.1126 104.708 79.5184 100.302 80.1776C101.011 78.9605 102.074 77.7434 103.239 76.8813C104.455 76.0191 105.924 75.4613 107.393 75.4106C109.773 75.3599 112.762 76.9827 113.724 79.0112Z" fill="#57324F"/>
<path d="M109.875 91.3345C109.875 92.8559 108.608 94.073 107.089 94.073C105.569 94.073 104.354 92.8559 104.354 91.3345C104.354 89.7624 105.569 88.5453 107.089 88.5453C108.608 88.5453 109.875 89.7624 109.875 91.3345Z" fill="#57324F"/>
<path d="M134.035 79.0112C138.543 79.1126 143 79.5184 147.457 80.1776C146.748 78.9605 145.685 77.7434 144.469 76.8813C143.304 76.0191 141.835 75.4613 140.316 75.4106C137.935 75.3599 134.997 76.9827 134.035 79.0112Z" fill="#57324F"/>
<path d="M134.39 91.3345C134.39 92.8559 135.656 94.073 137.175 94.073C138.695 94.073 139.911 92.8559 139.911 91.3345C139.911 89.7624 138.695 88.5453 137.175 88.5453C135.656 88.5453 134.39 89.7624 134.39 91.3345Z" fill="#57324F"/>
<path d="M127.906 104.165C124.563 104.216 121.17 104.266 117.776 104.317C118.84 105.991 120.764 107.208 122.689 107.208C124.665 107.208 126.893 105.839 127.906 104.165Z" fill="#C4525A"/>
<path d="M110.178 102.999C110.432 105.129 108.254 107.157 105.265 107.512C102.277 107.867 99.6431 106.447 99.3898 104.317C99.1366 102.187 101.315 100.159 104.303 99.8036C107.291 99.4486 109.925 100.869 110.178 102.999Z" fill="#EF8B9E"/>
<path d="M135.605 102.999C135.352 105.129 137.581 107.157 140.569 107.512C143.557 107.867 146.191 106.447 146.444 104.317C146.698 102.187 144.52 100.159 141.481 99.8036C138.492 99.4486 135.909 100.869 135.605 102.999Z" fill="#EF8B9E"/>
<path d="M135.656 110.098C128.109 111.316 120.511 111.975 112.914 112.178C114.585 115.018 117.32 117.401 120.461 118.517C123.55 119.633 127.146 119.48 130.084 118.01C133.073 116.488 135.099 113.344 135.656 110.098Z" fill="#FEFEFE"/>
<path d="M131.148 120.241C128.565 121.103 125.88 121.407 123.145 121.205C124.411 122.067 125.88 122.98 127.4 122.98C128.919 122.98 130.692 121.661 131.148 120.241Z" fill="#C4525A"/>
<path d="M131.705 213.756L131.502 216.495C131.249 220.095 132.364 223.645 134.592 226.485L160.475 259.195L180.836 269.845C187.928 273.547 196.437 273.496 203.528 269.693C213.202 264.469 218.166 253.313 215.532 242.612L198.26 172.374C195.829 162.637 188.13 155.183 178.354 153.154L173.441 152.14C168.174 169.027 174.454 203.512 176.734 218.067L161.792 197.021C159.563 193.877 156.22 191.797 152.421 191.138L149.99 190.732L131.705 213.756Z" fill="#EF8B9E"/>
<path d="M136.466 221.262C138.948 221.16 141.785 220.552 144.52 219.183C147.305 217.813 149.99 215.785 152.117 213.198C154.194 210.663 155.714 207.62 156.524 204.628C157.334 201.636 157.436 198.745 157.03 196.311C156.625 198.745 155.967 201.433 154.852 204.07C153.738 206.758 152.219 209.395 150.294 211.728C148.369 214.061 146.09 216.038 143.659 217.661C141.278 219.233 138.796 220.4 136.466 221.262Z" fill="#E8517D"/>
<path d="M193.904 193.877C190.967 196.159 187.624 199.759 184.838 203.816C182.052 207.823 179.925 212.235 178.81 215.835C180.988 212.793 183.572 208.736 186.307 204.831C188.991 200.875 191.828 196.97 193.904 193.877Z" fill="#E8517D"/>
<path d="M190.359 208.33C188.282 208.685 185.851 209.851 183.774 211.525C181.697 213.148 180.026 215.278 179.216 217.205C181.09 216.292 183.217 214.821 185.192 213.249C187.168 211.677 189.042 209.953 190.359 208.33Z" fill="#E8517D"/>
<path d="M196.69 224.507C195.323 222.53 192.942 220.603 190.207 219.284C187.472 218.016 184.483 217.357 182.103 217.56C184.027 218.98 186.56 220.349 189.143 221.566C191.726 222.783 194.36 223.899 196.69 224.507Z" fill="#E8517D"/>
<path d="M176.734 218.067L194.816 243.677C194.411 223.24 176.734 218.067 176.734 218.067Z" fill="#E8517D"/>
<path d="M151.155 262.492C157.182 260.057 164.122 262.34 169.592 265.788C175.113 269.186 179.975 273.699 185.952 276.286C196.133 280.748 208.745 278.568 217.204 271.316C225.612 264.064 229.765 252.298 228.144 241.294C227.536 237.186 226.22 233.179 223.687 229.934C221.154 226.688 217.356 224.355 213.253 224.152C209.15 223.95 204.896 226.181 203.173 229.934C201.198 234.346 202.971 239.468 205.047 243.88C207.074 248.241 209.454 252.958 208.492 257.725C207.377 263.303 201.654 267.157 195.981 267.614C190.308 268.07 184.736 265.839 179.874 262.897C175.012 259.956 170.504 256.355 165.489 253.668C160.475 250.98 154.65 249.256 149.078 250.523C149.635 253.921 150.648 259.094 151.155 262.492Z" fill="#D0DDE0"/>
<path d="M208.492 257.725C208.289 258.587 207.985 259.449 207.631 260.21C210.467 264.216 214.114 267.664 218.217 270.403C221.002 267.766 223.282 264.622 224.953 261.173C219.179 260.869 213.455 258.942 208.694 255.645C208.694 256.305 208.644 257.015 208.492 257.725Z" fill="#9EABB6"/>
<path d="M188.029 274.105C183.014 271.671 178.76 268.019 174.15 264.926C169.541 261.782 163.919 259.043 158.398 259.043C158.702 256.153 158.246 253.211 157.182 250.523C154.498 249.966 151.763 249.915 149.078 250.523C149.635 253.921 150.648 259.094 151.155 262.492C157.182 260.057 164.122 262.34 169.592 265.788C175.113 269.186 179.975 273.699 185.952 276.286C192.587 279.176 200.286 279.227 207.175 276.945C200.692 277.908 193.904 276.996 188.029 274.105Z" fill="#9EABB6"/>
<path d="M228.398 248.241C228.549 245.908 228.499 243.576 228.144 241.294C228.144 241.243 228.144 241.192 228.144 241.091C223.94 242.612 219.483 243.17 215.076 242.663C210.72 242.156 206.567 240.584 202.87 238.2C203.427 240.178 204.186 242.054 205.047 243.88C205.199 244.184 205.301 244.488 205.453 244.843C212.24 248.951 220.699 250.219 228.398 248.241Z" fill="#9EABB6"/>
<path d="M152.421 262.593C156.169 255.544 154.549 246.517 150.142 239.874C145.685 233.23 138.796 228.615 131.756 224.862C124.715 221.11 117.27 218.118 110.584 213.706C104.404 209.699 98.934 204.577 94.5274 198.644C91.9442 195.195 89.6649 191.29 89.209 186.98C88.7532 182.669 90.3233 177.953 94.1728 175.975C95.1858 180.133 98.3262 183.785 102.024 186.016C103.543 175.671 101.264 164.818 95.743 155.994C90.1714 147.17 81.3581 140.425 71.3799 137.331C62.4147 134.542 53.0443 135.303 43.6233 135.962C46.6623 139.461 50.765 142.098 55.121 143.468C46.7636 155.233 38.2543 167.252 33.6957 180.945C28.0228 197.883 28.6813 216.241 29.7449 234.092C39.9764 246.821 53.6521 256.457 68.8474 262.492C84.0933 268.527 100.454 271.265 116.763 271.924C129.274 272.431 146.596 273.699 152.421 262.593Z" fill="#D0DDE0"/>
<path d="M93.5144 169.839C92.0961 172.526 91.6909 175.62 91.6403 178.003C92.2988 177.192 93.1598 176.482 94.1728 175.975C93.6157 173.135 93.3624 171.005 93.5144 169.839Z" fill="#9EABB6"/>
<path d="M63.5291 145.243C61.1991 145.141 57.9068 144.228 55.121 143.468C54.4119 144.431 53.7028 145.446 52.9937 146.46C56.134 146.561 60.3381 146.409 63.5291 145.243Z" fill="#9EABB6"/>
<path d="M131.756 224.862C124.715 221.11 117.27 218.118 110.584 213.706C104.404 209.699 98.934 204.577 94.5273 198.644C93.0078 196.615 91.5896 194.434 90.5766 192.102C89.7155 197.021 86.8284 201.585 82.6244 204.324C81.0036 205.338 79.2308 206.149 78.0658 207.62C76.9008 209.141 76.7489 211.626 78.3191 212.691C79.5347 213.452 81.1555 213.046 82.4218 212.387C83.6881 211.677 84.9037 210.764 86.3219 210.561C88.9051 210.206 91.2857 212.387 91.8935 214.923C92.5013 217.408 91.6402 220.095 90.4753 222.377C89.3103 224.66 87.7401 226.79 86.7271 229.173C86.3219 230.086 85.9673 231.1 86.1193 232.165C86.2206 233.179 86.8791 234.194 87.8921 234.447C89.209 234.853 90.5259 233.788 91.4883 232.824C94.3247 230.035 97.1612 227.297 99.9976 224.558C101.112 223.493 102.277 222.377 103.695 221.82C105.113 221.211 106.886 221.262 108 222.327C109.52 223.747 109.165 226.232 108.304 228.159C107.139 230.745 105.265 233.027 104.506 235.766C103.796 238.504 104.759 242.105 107.494 242.866C109.064 243.322 110.837 242.663 112.103 241.547C113.319 240.482 114.18 239.011 115.041 237.591C116.459 235.208 117.979 232.723 120.309 231.202C122.639 229.68 125.982 229.376 128.008 231.252C129.882 232.977 130.084 235.816 129.73 238.352C129.375 240.837 128.666 243.373 129.122 245.858C129.578 248.343 131.806 250.726 134.288 250.219C136.061 249.813 137.226 248.089 137.783 246.365C138.34 244.59 138.492 242.713 139.252 241.04C139.961 239.366 141.582 237.896 143.405 238.048C144.925 238.2 146.141 239.519 146.951 240.888C147.711 242.206 148.319 243.728 149.483 244.793C150.497 245.655 151.813 246.111 153.181 246.061C152.421 243.88 151.408 241.801 150.142 239.874C145.685 233.23 138.796 228.615 131.756 224.862Z" fill="#9EABB6"/>
<path d="M64.2888 230.187C63.2251 224.609 62.5667 218.828 59.9835 213.756C57.3496 208.685 52.2845 204.425 46.6116 204.729C40.9388 205.034 36.3295 209.902 34.5567 215.328C32.7333 220.704 33.0879 226.587 33.4931 232.267C33.6957 234.498 33.8476 236.729 33.9996 238.961C43.6232 249.306 55.6781 257.268 68.8474 262.492C72.7475 264.064 76.6982 265.382 80.6997 266.498C78.2178 263.759 76.0398 260.767 74.115 257.572C69.1006 249.205 66.0616 239.772 64.2888 230.187Z" fill="#E4EAEC"/>
<path d="M123.753 242.511C115.446 241.649 106.329 244.488 100.453 250.422C95.5404 255.392 92.6026 262.238 92.2987 269.186C94.7299 269.642 97.1612 270.048 99.5924 270.403C100.048 265.23 101.77 260.21 104.607 255.899C108.963 249.205 116.003 244.336 123.753 242.511Z" fill="#9EABB6"/>
<path d="M68.898 161.471C69.2019 160.558 69.2526 159.392 68.9487 158.225C68.6448 157.059 67.9863 155.842 67.1253 154.878C66.2135 153.915 65.0486 153.255 63.8836 152.9C62.7693 152.545 61.6043 152.495 60.6926 152.748C62.3641 153.61 64.1875 154.777 65.6564 156.298C67.0746 157.82 68.1383 159.696 68.898 161.471Z" fill="#57324F"/>
<path d="M87.4869 172.881C87.2843 172.019 86.7778 171.106 86.018 170.295C85.2583 169.484 84.2452 168.824 83.1309 168.368C82.0166 167.911 80.8516 167.709 79.7373 167.81C78.623 167.861 77.61 168.165 76.8502 168.621C78.623 168.926 80.5984 169.331 82.4218 170.092C84.2959 170.853 86.018 171.867 87.4869 172.881Z" fill="#57324F"/>
<path d="M71.5825 179.728C70.3669 179.221 69.2019 178.409 68.4422 177.243C67.6318 176.127 67.2772 174.758 67.4291 173.439C67.4798 173.034 67.5811 172.628 67.7331 172.273C68.0876 171.816 68.3915 171.309 68.5941 170.853C68.7461 170.65 68.9487 170.447 69.1513 170.295C68.9993 170.346 68.8474 170.396 68.6954 170.498C68.7461 170.295 68.7967 170.092 68.8474 169.94C68.6954 170.194 68.5435 170.498 68.3409 170.751C67.9357 171.005 67.5811 171.36 67.3278 171.766C66.9226 172.121 66.4668 172.425 65.9603 172.628C64.694 173.236 63.1745 173.338 61.7563 172.983C60.338 172.577 59.0718 171.715 58.1094 170.65C57.1977 169.534 56.5899 168.267 56.2353 167.1C56.1847 168.317 56.5392 169.839 57.4003 171.157C58.2613 172.526 59.7809 173.693 61.4524 174.099C63.1238 174.606 65.0486 174.301 66.4161 173.439C66.4668 173.389 66.5681 173.338 66.6187 173.287C66.2135 174.809 66.6187 176.533 67.5304 177.851C68.4422 179.221 69.911 180.133 71.3293 180.488C72.7981 180.894 74.2164 180.691 75.28 180.235C74.1657 180.336 72.8488 180.235 71.5825 179.728Z" fill="#45557C"/>
<path d="M73.1527 187.183C64.6434 184.393 56.7418 179.728 50.2585 173.541C51.2715 178.46 54.108 182.923 58.3626 185.509C62.6173 188.146 68.3409 188.501 73.1527 187.183Z" fill="#9EABB6"/>
<path d="M72.7981 171.816C71.2786 169.737 69.2526 168.064 66.9226 167.049C66.6694 168.723 66.8213 170.65 67.5304 172.171C69.1513 172.425 71.1773 172.222 72.7981 171.816Z" fill="#57324F"/>
<path d="M90.3233 260.818L89.1077 257.572C88.0947 254.935 85.9167 252.907 83.1816 252.146C79.8893 251.183 74.9255 249.763 69.3539 247.988C57.1977 244.083 41.9518 238.454 33.5438 232.571C31.8723 231.404 30.5047 230.289 29.4917 229.122V229.072C29.0358 221.008 28.8332 212.894 29.3397 204.831V204.729C29.3397 204.729 17.7913 218.675 11.9665 237.997C11.0041 241.192 11.2574 244.641 12.5237 247.734L17.4874 259.5C18.5511 261.985 20.2732 264.165 22.4512 265.737C31.1125 271.874 54.7158 287.493 75.8372 291.905C78.2178 292.412 80.7503 291.855 82.7764 290.435L85.5115 288.508C85.5115 288.508 79.8893 275.018 90.3233 260.818Z" fill="#EF8B9E"/>
<path d="M101.213 262.897L93.7169 261.477L90.3233 260.818C79.8893 275.018 85.5115 288.508 85.5115 288.508L103.796 292.565L104.86 271.062L105.113 265.027C105.113 264.267 104.556 263.557 103.796 263.404L101.213 262.897Z" fill="#F4AFB4"/>
<path d="M22.9577 230.999C23.3123 227.55 24.5785 224 26.1994 220.907C25.7942 225.268 28.1748 227.855 29.4917 229.122V229.072C29.1878 223.493 28.9852 217.864 29.0358 212.286C24.5279 217.306 22.198 224.254 22.9577 230.999Z" fill="#E8517D"/>
<path d="M34.3542 257.065C32.3788 254.935 30.5554 252.755 28.9345 250.523C27.3644 248.343 25.9461 246.162 24.7812 244.235C25.2877 246.466 26.25 248.951 27.567 251.385C28.9345 253.87 30.7073 256.355 32.784 258.536C34.8607 260.717 37.1906 262.644 39.5712 264.114C41.9518 265.636 44.383 266.701 46.561 267.36C44.6869 266.042 42.6103 264.571 40.5336 262.796C38.4062 261.072 36.3295 259.145 34.3542 257.065Z" fill="#E8517D"/>
<path d="M37.14 256C39.4193 258.08 43.1168 260.057 47.1182 260.92C51.069 261.832 55.273 261.579 58.2107 260.666C55.121 260.615 51.2209 260.362 47.4221 259.5C43.6233 258.688 39.9764 257.268 37.14 256Z" fill="#E8517D"/>
<path d="M78.2684 260.818C76.8502 262.897 75.6852 265.433 75.0268 268.019C74.3683 270.656 74.2164 273.395 74.5203 275.931C74.7735 278.466 75.5333 280.748 76.445 282.523C76.1411 280.546 75.8878 278.263 75.9385 275.88C75.9891 273.446 76.2931 270.961 76.9009 268.527C77.5087 266.042 78.4204 263.709 79.5347 261.579C80.5984 259.449 81.8646 257.522 83.0803 255.95C81.4594 257.065 79.7373 258.739 78.2684 260.818Z" fill="#E8517D"/>
<path d="M161.083 263.607C159.867 262.542 157.942 262.897 156.777 264.013C155.612 265.078 154.194 265.839 152.523 266.752C153.485 265.788 154.498 264.824 154.903 263.506C155.359 262.238 155.055 260.615 153.89 259.956C152.32 259.094 150.497 260.311 149.078 261.427C144.469 264.977 139.1 267.512 133.427 268.831C131.806 269.237 129.882 269.439 128.767 268.222C127.957 267.36 127.856 265.991 128.261 264.875C128.717 263.81 129.578 262.897 130.489 262.187C131.604 261.325 132.819 260.565 133.579 259.398C134.39 258.232 134.542 256.457 133.427 255.544C132.262 254.58 130.54 255.138 129.173 255.848C124.107 258.485 119.701 262.39 116.459 267.107C116.459 267.107 111.191 266.295 105.113 265.027C97.0093 275.981 101.669 288.508 101.669 288.508C116.864 294.644 134.086 295.709 149.889 291.347C150.952 291.094 152.067 290.739 152.877 290.029C153.738 289.319 154.245 288.102 153.89 287.037C153.586 286.327 152.877 285.82 152.067 285.668C155.004 284.4 157.638 282.473 159.715 280.038C160.221 279.43 160.677 278.821 160.88 278.061C161.032 277.3 160.88 276.387 160.221 275.931C159.462 275.373 158.347 275.677 157.436 275.981C155.46 276.641 153.485 277.3 151.56 277.959C155.46 275.576 158.702 272.178 160.981 268.222C161.386 267.462 161.792 266.701 161.893 265.889C161.944 265.027 161.741 264.114 161.083 263.607Z" fill="#F6BDB9"/>
<path d="M133.63 292.767C124.31 292.514 114.788 290.029 106.025 286.53C103.948 285.718 102.48 283.842 102.176 281.661C101.568 276.894 102.024 272.026 103.543 267.462C97.6677 277.756 101.669 288.508 101.669 288.508C116.864 294.644 134.086 295.709 149.889 291.347C150.294 291.246 150.699 291.145 151.104 290.992C145.381 292.26 139.505 292.869 133.63 292.767Z" fill="#ECA4A9"/>
<path d="M105.924 290.08V290.029C104.506 289.573 103.087 289.065 101.669 288.508C103.138 293.427 104.1 293.832 105.924 290.08Z" fill="#D03464"/>
<path d="M135.605 274.714C138.239 274.815 141.785 274.156 144.976 272.634C148.167 271.164 150.902 268.882 152.523 266.752C150.345 268.273 147.508 270.099 144.418 271.519C141.379 272.939 138.138 274.004 135.605 274.714Z" fill="#AB424D"/>
<path d="M138.898 281.56C140.67 281.864 143.152 281.763 145.482 281.103C147.863 280.444 150.041 279.278 151.408 278.111C149.737 278.771 147.508 279.633 145.28 280.241C143 280.901 140.721 281.256 138.898 281.56Z" fill="#AB424D"/>
<path d="M138.746 287.747C140.569 288.102 143.051 288.203 145.482 287.848C147.913 287.544 150.243 286.733 151.915 285.82C150.091 286.175 147.711 286.631 145.33 286.986C143 287.341 140.569 287.544 138.746 287.747Z" fill="#AB424D"/>
<path d="M118.384 199.709L131.705 213.756C148.622 206.251 149.99 190.732 149.99 190.732L135.453 177.141L118.384 199.709Z" fill="#F4AFB4"/>
<path d="M122.233 192.102C122.233 192.102 115.953 200.875 119.194 199.658C121.626 198.745 124.006 197.427 126.184 195.499L125.526 195.956L122.233 192.102Z" fill="#D03464"/>
<path d="M117.877 158.58C107.646 150.568 95.9962 144.076 83.84 139.411C82.6244 138.904 81.3075 138.447 79.9906 138.65C78.6737 138.802 77.4074 139.918 77.458 141.236C77.458 142.504 78.6737 143.417 79.7373 144.076C82.2699 145.699 85.005 147.119 87.7908 148.285C85.3089 147.271 82.8777 146.206 80.3958 145.192C79.3321 144.736 78.2178 144.279 77.1035 144.279C75.9385 144.279 74.7229 144.786 74.267 145.851C73.7605 146.967 74.267 148.285 75.1281 149.148C75.9892 149.959 77.1035 150.415 78.2685 150.872C81.966 152.343 85.6635 153.762 89.4116 155.233C86.6258 154.32 84.1946 153.255 81.4595 152.647C79.8893 152.292 77.8633 152.241 77.0528 153.661C76.445 154.675 76.9009 156.045 77.762 156.856C78.623 157.667 79.788 158.073 80.9023 158.428C84.2959 159.595 87.7402 160.761 91.1844 161.927C89.0571 161.471 87.183 160.659 85.4609 160.862C83.7387 161.065 82.7257 162.384 82.8777 164.108C83.0803 165.934 85.1063 166.948 86.8791 167.556C91.4883 169.179 96.1989 170.549 100.96 171.664C101.973 179.778 116.459 185.509 116.459 185.509L122.233 192.102L125.526 195.956L126.184 195.499C130.338 191.899 133.782 186.168 135.453 177.141L117.877 158.58Z" fill="#F6BDB9"/>
<path d="M122.233 192.102C122.233 192.102 115.953 200.875 119.194 199.658C121.626 198.745 124.006 197.427 126.184 195.499L125.526 195.956L122.233 192.102Z" fill="#D03464"/>
<path d="M123.753 188.704C121.828 186.726 120.055 184.647 118.586 182.415C111.546 181.148 105.012 175.671 102.682 168.926C98.1742 168.114 93.7169 167.303 89.2597 166.441C87.7908 166.187 86.2713 165.883 85.0556 165.072C84.0933 164.412 83.3842 163.297 83.3335 162.13C82.979 162.688 82.827 163.347 82.8777 164.108C83.0803 165.934 85.1063 166.948 86.8791 167.557C91.4883 169.179 96.1988 170.549 100.96 171.664C101.973 179.778 116.459 185.509 116.459 185.509L122.233 192.102L125.526 195.956L126.184 195.499C128.362 193.623 130.337 191.138 131.958 187.943C131.654 188.247 131.351 188.552 131.047 188.856C128.97 190.834 125.678 190.732 123.753 188.704Z" fill="#ECA4A9"/>
<path d="M102.581 165.376C99.4912 163.905 87.5376 160 84.144 159.544C87.2337 161.065 99.1366 164.97 102.581 165.376Z" fill="#AB424D"/>
<path d="M99.6431 158.53C96.7054 157.008 84.5492 152.647 81.3582 152.089C84.2453 153.61 96.4015 158.022 99.6431 158.53Z" fill="#AB424D"/>
<path d="M99.2885 153.255C95.8443 151.125 84.4985 145.598 80.5477 144.634C83.992 146.764 95.3378 152.292 99.2885 153.255Z" fill="#AB424D"/>
<path d="M16.9303 209.395C17.1329 209.547 15.6133 211.271 13.638 214.314C13.3847 214.72 13.1315 215.126 12.8782 215.531C12.5743 215.937 12.3717 216.393 12.0678 216.85C11.5106 217.763 11.0548 218.777 10.4976 219.842C9.43395 222.023 8.42093 224.457 7.61052 227.094C6.8001 229.731 6.2936 232.317 5.93904 234.701C5.78709 235.867 5.63513 237.034 5.58448 238.099C5.53383 238.606 5.48318 239.113 5.43253 239.62C5.43253 240.127 5.43253 240.584 5.43253 241.04C5.38188 244.691 5.63513 246.923 5.38188 246.973C5.22993 247.024 4.62212 244.793 4.47017 241.04C4.41951 240.584 4.41951 240.127 4.41951 239.62C4.36886 239.113 4.41951 238.555 4.41951 237.997C4.41951 236.932 4.57147 235.766 4.67277 234.549C4.97667 232.114 5.48318 229.427 6.2936 226.688C7.15466 224 8.21833 221.465 9.33265 219.284C9.94045 218.219 10.4976 217.205 11.1054 216.292C11.4093 215.836 11.6626 215.379 11.9665 214.923C12.2704 214.517 12.5743 214.162 12.8276 213.756C15.0562 210.815 16.829 209.294 16.9303 209.395Z" fill="#7E81A0"/>
<path d="M8.16769 214.263C8.26899 214.365 7.35728 215.582 6.14166 217.661C5.4832 218.726 4.82474 219.994 4.11562 221.465C3.45716 222.935 2.84935 224.558 2.29219 226.333C1.73504 228.108 1.38048 229.883 1.12723 231.455C0.873972 233.027 0.722019 234.498 0.671368 235.715C0.519416 238.149 0.620717 239.671 0.468765 239.671C0.367463 239.671 0.0635584 238.2 0.0129076 235.664C-0.0377433 234.447 0.0635584 232.977 0.266162 231.303C0.519416 229.68 0.873972 227.905 1.38048 226.08C1.98829 224.254 2.64675 222.58 3.35586 221.11C4.11562 219.639 4.87539 218.32 5.5845 217.306C7.00272 215.278 8.06639 214.213 8.16769 214.263Z" fill="#7E81A0"/>
<path d="M44.1298 117.807C44.2817 118.01 42.3064 119.633 39.4699 122.625C39.1154 122.98 38.7608 123.385 38.4062 123.791C38.001 124.197 37.6465 124.653 37.2413 125.11C36.4815 125.972 35.7218 127.037 34.8607 128.102C33.2905 130.232 31.6697 132.717 30.2008 135.455C28.7319 138.194 27.567 140.932 26.6046 143.468C26.1994 144.736 25.7435 145.953 25.4396 147.068C25.2877 147.677 25.0851 148.235 24.9331 148.742C24.8318 149.3 24.6799 149.807 24.5786 150.314C23.6669 154.32 23.363 156.856 23.1097 156.805C22.9577 156.805 22.8564 154.219 23.5149 150.111C23.6162 149.604 23.7175 149.046 23.8188 148.488C23.9201 147.93 24.0721 147.373 24.1734 146.764C24.4773 145.547 24.8825 144.33 25.2877 142.961C26.1487 140.374 27.3137 137.534 28.8332 134.745C30.3528 131.905 32.0749 129.369 33.7464 127.189C34.6074 126.124 35.4685 125.11 36.3296 124.247C36.7348 123.791 37.14 123.335 37.5452 122.98C37.9504 122.574 38.3556 122.168 38.7102 121.813C41.7999 118.973 44.0285 117.655 44.1298 117.807Z" fill="#7E81A0"/>
<path d="M33.645 122.827C33.6957 122.929 32.632 123.791 31.1125 125.363C30.3527 126.175 29.4917 127.138 28.5799 128.304C27.7189 129.42 26.8072 130.739 25.9461 132.159C25.1357 133.629 24.4266 135.049 23.8694 136.368C23.3123 137.686 22.8564 138.954 22.5525 139.969C21.894 142.098 21.6408 143.417 21.5395 143.417C21.4382 143.417 21.4888 141.997 21.9953 139.816C22.1979 138.751 22.6031 137.484 23.1603 136.064C23.6668 134.694 24.3759 133.224 25.237 131.753C26.0981 130.282 27.0604 128.964 28.0228 127.797C28.9345 126.682 29.8969 125.718 30.7073 124.957C32.3788 123.487 33.5944 122.726 33.645 122.827Z" fill="#7E81A0"/>
<path d="M231.994 269.439C232.044 269.49 231.791 270.099 231.133 271.113C230.981 271.366 230.829 271.62 230.626 271.975C230.424 272.229 230.17 272.584 229.917 272.888C229.36 273.547 228.803 274.359 228.043 275.119C227.688 275.525 227.334 275.931 226.929 276.387C226.523 276.793 226.068 277.199 225.612 277.604C224.7 278.517 223.636 279.328 222.522 280.191C220.192 281.915 217.558 283.538 214.519 284.907C211.531 286.225 208.542 287.088 205.757 287.696C204.338 287.95 203.021 288.203 201.755 288.254C201.147 288.305 200.54 288.406 199.932 288.406C199.375 288.406 198.767 288.406 198.26 288.406C197.197 288.457 196.234 288.355 195.373 288.305C194.968 288.254 194.563 288.254 194.208 288.203C193.854 288.153 193.499 288.102 193.195 288.051C192.03 287.798 191.372 287.645 191.422 287.544C191.422 287.443 192.081 287.392 193.246 287.392C193.55 287.443 193.904 287.443 194.259 287.443C194.613 287.443 194.968 287.443 195.424 287.443C196.234 287.392 197.197 287.443 198.21 287.29C198.716 287.29 199.273 287.24 199.83 287.189C200.388 287.138 200.995 287.037 201.603 286.935C202.819 286.834 204.085 286.53 205.453 286.276C208.087 285.617 210.974 284.704 213.911 283.436C216.798 282.118 219.382 280.596 221.661 279.024C222.725 278.213 223.839 277.452 224.751 276.641C225.207 276.235 225.662 275.88 226.068 275.474C226.473 275.069 226.878 274.714 227.283 274.359C228.043 273.649 228.651 272.939 229.208 272.33C229.512 272.026 229.765 271.772 230.018 271.468C230.272 271.214 230.474 270.961 230.626 270.758C231.437 269.845 231.892 269.389 231.994 269.439Z" fill="#7E81A0"/>
<path d="M227.081 283.183C227.182 283.233 226.169 284.501 224.193 286.175C223.231 286.986 221.965 287.899 220.547 288.761C219.078 289.623 217.406 290.435 215.532 291.145C213.709 291.804 211.885 292.26 210.214 292.615C208.542 292.869 207.023 293.021 205.706 293.021C203.173 293.072 201.603 292.767 201.603 292.666C201.603 292.514 203.173 292.565 205.706 292.362C206.972 292.26 208.441 292.057 210.062 291.753C211.683 291.398 213.405 290.891 215.228 290.232C217.001 289.573 218.622 288.812 220.091 288C221.56 287.189 222.775 286.378 223.788 285.617C225.814 284.146 226.979 283.081 227.081 283.183Z" fill="#7E81A0"/>
<path d="M222.522 151.43C222.319 151.43 222.37 149.148 221.762 145.648C221.104 142.149 219.584 137.331 216.444 132.919C213.304 128.457 209.353 125.414 206.263 123.639C203.173 121.813 201.046 121.103 201.097 120.9C201.147 120.748 203.427 121.154 206.719 122.777C210.011 124.4 214.266 127.493 217.558 132.108C220.8 136.774 222.269 141.845 222.674 145.496C223.13 149.148 222.674 151.43 222.522 151.43Z" fill="#7E81A0"/>
<path d="M226.422 137.686C226.27 137.737 225.916 136.216 225.004 133.984C224.751 133.426 224.497 132.818 224.143 132.209C223.839 131.55 223.434 130.891 223.029 130.232C222.117 128.862 221.053 127.442 219.787 126.124C218.521 124.805 217.153 123.69 215.836 122.726C215.178 122.32 214.519 121.864 213.911 121.56C213.304 121.154 212.696 120.9 212.139 120.596C209.91 119.582 208.441 119.227 208.492 119.075C208.492 118.973 210.062 119.125 212.392 120.038C212.949 120.241 213.607 120.495 214.266 120.85C214.924 121.154 215.583 121.61 216.292 122.016C217.66 122.929 219.128 124.095 220.445 125.465C221.762 126.884 222.877 128.355 223.738 129.775C224.143 130.485 224.548 131.195 224.801 131.854C225.156 132.514 225.409 133.173 225.612 133.731C226.422 136.114 226.523 137.686 226.422 137.686Z" fill="#7E81A0"/>
</svg>
